<?xml version="1.0" encoding="UTF-8" standalone="no"?>
<!DOCTYPE svg PUBLIC "-//W3C//DTD SVG 1.1//EN"
 "http://www.w3.org/Graphics/SVG/1.1/DTD/svg11.dtd">
<!-- Generated by graphviz version 2.40.1 (20161225.0304)
 -->
<!-- Title: G Pages: 1 -->
<svg width="860pt" height="593pt"
 viewBox="0.00 0.00 860.00 593.00" xmlns="http://www.w3.org/2000/svg" xmlns:xlink="http://www.w3.org/1999/xlink">
<g id="graph0" class="graph" transform="scale(1 1) rotate(0) translate(4 589)">
<title>G</title>
<polygon fill="#ffffff" stroke="transparent" points="-4,4 -4,-589 856,-589 856,4 -4,4"/>
<g id="clust1" class="cluster">
<title>cluster_0</title>
<polygon fill="#add8e6" stroke="#add8e6" points="538,-506 538,-577 812,-577 812,-506 538,-506"/>
<text text-anchor="middle" x="594" y="-565" font-family="Helvetica,sans-Serif" font-size="10.00" fill="#000000">Cloud speech servers</text>
</g>
<g id="clust2" class="cluster">
<title>cluster_1</title>
<polygon fill="none" stroke="#000000" stroke-dasharray="1,5" points="408,-407 408,-478 816,-478 816,-407 408,-407"/>
<text text-anchor="middle" x="470" y="-466" font-family="Helvetica,sans-Serif" font-size="10.00" fill="#000000">Android speech services</text>
</g>
<g id="clust3" class="cluster">
<title>cluster_2</title>
<polygon fill="none" stroke="#000000" stroke-dasharray="1,5" points="8,-171 8,-242 277,-242 277,-171 8,-171"/>
<text text-anchor="middle" x="92.5" y="-230" font-family="Helvetica,sans-Serif" font-size="10.00" fill="#000000">Android RecognizerIntent activities</text>
</g>
<g id="clust4" class="cluster">
<title>cluster_3</title>
<polygon fill="none" stroke="#000000" stroke-dasharray="1,5" points="285,-171 285,-242 613,-242 613,-171 285,-171"/>
<text text-anchor="middle" x="332.5" y="-230" font-family="Helvetica,sans-Serif" font-size="10.00" fill="#000000">Android IME apps</text>
</g>
<g id="clust5" class="cluster">
<title>cluster_4</title>
<polygon fill="#d3d3d3" stroke="#d3d3d3" points="428,-8 428,-79 699,-79 699,-8 428,-8"/>
<text text-anchor="middle" x="465" y="-67" font-family="Helvetica,sans-Serif" font-size="10.00" fill="#000000">Android apps</text>
</g>
<!-- Kõnele View -->
<g id="node1" class="node">
<title>Kõnele View</title>
<polygon fill="#ffff00" stroke="#000000" points="412,-305 288,-305 288,-301 284,-301 284,-297 288,-297 288,-277 284,-277 284,-273 288,-273 288,-269 412,-269 412,-305"/>
<polyline fill="none" stroke="#000000" points="288,-301 292,-301 292,-297 288,-297 "/>
<polyline fill="none" stroke="#000000" points="288,-277 292,-277 292,-273 288,-273 "/>
<text text-anchor="middle" x="350" y="-290" font-family="Helvetica,sans-Serif" font-size="10.00" fill="#000000">Kõnele mic+swipe editor</text>
<text text-anchor="middle" x="350" y="-279" font-family="Helvetica,sans-Serif" font-size="10.00" fill="#000000">(view component)</text>
</g>
<!-- panel -->
<g id="node11" class="node">
<title>panel</title>
<polygon fill="#ffff00" stroke="#000000" points="268.5,-215 137.5,-215 137.5,-179 268.5,-179 268.5,-215"/>
<text text-anchor="middle" x="203" y="-194.5" font-family="Helvetica,sans-Serif" font-size="10.00" fill="#000000">Kõnele voice search panel</text>
</g>
<!-- Kõnele View&#45;&gt;panel -->
<g id="edge10" class="edge">
<title>Kõnele View&#45;&gt;panel</title>
<path fill="none" stroke="#000000" d="M320.2524,-268.7872C296.4421,-254.2095 263.0006,-233.735 237.9216,-218.3806"/>
<polygon fill="#000000" stroke="#000000" points="238.9171,-216.5277 232.7034,-215.1858 236.724,-220.1097 238.9171,-216.5277"/>
</g>
<!-- Kõnele IME -->
<g id="node12" class="node">
<title>Kõnele IME</title>
<polygon fill="#ffff00" stroke="#000000" points="407,-215 293,-215 293,-179 407,-179 407,-215"/>
<text text-anchor="middle" x="350" y="-194.5" font-family="Helvetica,sans-Serif" font-size="10.00" fill="#000000">Kõnele speak &amp; swipe</text>
</g>
<!-- Kõnele View&#45;&gt;Kõnele IME -->
<g id="edge9" class="edge">
<title>Kõnele View&#45;&gt;Kõnele IME</title>
<path fill="none" stroke="#000000" d="M350,-268.7872C350,-255.1244 350,-236.2818 350,-221.3293"/>
<polygon fill="#000000" stroke="#000000" points="352.1001,-221.1857 350,-215.1858 347.9001,-221.1858 352.1001,-221.1857"/>
</g>
<!-- kaldi -->
<g id="node2" class="node">
<title>kaldi</title>
<polygon fill="none" stroke="#000000" points="659.5,-550 546.5,-550 546.5,-514 659.5,-514 659.5,-550"/>
<text text-anchor="middle" x="603" y="-529.5" font-family="Helvetica,sans-Serif" font-size="10.00" fill="#000000">kaldi&#45;gstreamer&#45;server</text>
</g>
<!-- Kõnele fast -->
<g id="node5" class="node">
<title>Kõnele fast</title>
<polygon fill="#ffff00" stroke="#000000" points="660,-451 538,-451 538,-415 660,-415 660,-451"/>
<text text-anchor="middle" x="599" y="-430.5" font-family="Helvetica,sans-Serif" font-size="10.00" fill="#000000">Kõnele (fast recognition)</text>
</g>
<!-- kaldi&#45;&gt;Kõnele fast -->
<g id="edge1" class="edge">
<title>kaldi&#45;&gt;Kõnele fast</title>
<path fill="none" stroke="#000000" d="M602.2663,-513.8419C601.6235,-497.9328 600.6843,-474.6863 599.9778,-457.2003"/>
<polygon fill="#000000" stroke="#000000" points="602.0696,-456.9533 599.729,-451.043 597.873,-457.1229 602.0696,-456.9533"/>
<text text-anchor="middle" x="627.5" y="-488.8" font-family="monospace" font-size="9.00" fill="#000000">WebSockets</text>
</g>
<!-- pocketsphinx -->
<g id="node3" class="node">
<title>pocketsphinx</title>
<polygon fill="none" stroke="#000000" points="804,-550 678,-550 678,-514 804,-514 804,-550"/>
<text text-anchor="middle" x="741" y="-529.5" font-family="Helvetica,sans-Serif" font-size="10.00" fill="#000000">ruby&#45;pocketsphinx&#45;server</text>
</g>
<!-- Kõnele grammar -->
<g id="node6" class="node">
<title>Kõnele grammar</title>
<polygon fill="#ffff00" stroke="#000000" points="807.5,-451 678.5,-451 678.5,-415 807.5,-415 807.5,-451"/>
<text text-anchor="middle" x="743" y="-430.5" font-family="Helvetica,sans-Serif" font-size="10.00" fill="#000000">Kõnele (grammar support)</text>
</g>
<!-- pocketsphinx&#45;&gt;Kõnele grammar -->
<g id="edge2" class="edge">
<title>pocketsphinx&#45;&gt;Kõnele grammar</title>
<path fill="none" stroke="#000000" d="M741.3668,-513.8419C741.6882,-497.9328 742.1579,-474.6863 742.5111,-457.2003"/>
<polygon fill="#000000" stroke="#000000" points="744.6138,-457.0842 742.6355,-451.043 740.4146,-456.9993 744.6138,-457.0842"/>
<text text-anchor="middle" x="796.5" y="-488.8" font-family="monospace" font-size="9.00" fill="#000000">net&#45;speech&#45;api (HTTP)</text>
</g>
<!-- other_service -->
<g id="node4" class="node">
<title>other_service</title>
<polygon fill="none" stroke="#000000" points="519.5,-451 416.5,-451 416.5,-415 519.5,-415 519.5,-451"/>
<text text-anchor="middle" x="468" y="-436" font-family="Helvetica,sans-Serif" font-size="10.00" fill="#000000">some other service:</text>
<text text-anchor="middle" x="468" y="-425" font-family="Helvetica,sans-Serif" font-size="10.00" fill="#000000">Google, ...</text>
</g>
<!-- Android SpeechRecognizer -->
<g id="node7" class="node">
<title>Android SpeechRecognizer</title>
<polygon fill="#32cd32" stroke="#000000" points="608.0071,-342.0493 613.9706,-342.1479 619.8724,-342.2953 625.6884,-342.4913 631.3951,-342.7353 636.9696,-343.0266 642.3898,-343.3645 647.6348,-343.7479 652.6845,-344.1759 657.5203,-344.6472 662.1246,-345.1606 666.4816,-345.7147 670.5765,-346.308 674.3966,-346.9388 677.9304,-347.6054 681.1683,-348.3059 684.1023,-349.0385 686.726,-349.8012 689.0349,-350.5918 691.0259,-351.4082 692.6979,-352.2481 694.0512,-353.1093 695.0875,-353.9894 695.8104,-354.886 696.2244,-355.7965 696.3358,-356.7186 696.1519,-357.6497 695.681,-358.5873 694.9327,-359.5287 693.9173,-360.4713 692.6459,-361.4127 691.1302,-362.3503 689.3827,-363.2814 687.416,-364.2035 685.2431,-365.114 682.8773,-366.0106 680.3317,-366.8907 677.6195,-367.7519 674.7538,-368.5918 671.7473,-369.4082 668.6124,-370.1988 665.3611,-370.9615 662.0049,-371.6941 658.5547,-372.3946 655.0209,-373.0612 651.4131,-373.692 647.7404,-374.2853 644.011,-374.8394 640.2327,-375.3528 636.4124,-375.8241 632.5564,-376.2521 628.6703,-376.6355 624.7593,-376.9734 620.8278,-377.2647 616.8799,-377.5087 612.9192,-377.7047 608.9489,-377.8521 604.9719,-377.9507 600.9911,-378 597.0089,-378 593.0281,-377.9507 589.0511,-377.8521 585.0808,-377.7047 581.1201,-377.5087 577.1722,-377.2647 573.2407,-376.9734 569.3297,-376.6355 565.4436,-376.2521 561.5876,-375.8241 557.7673,-375.3528 553.989,-374.8394 550.2596,-374.2853 546.5869,-373.692 542.9791,-373.0612 539.4453,-372.3946 535.9951,-371.6941 532.6389,-370.9615 529.3876,-370.1988 526.2527,-369.4082 523.2462,-368.5918 520.3805,-367.7519 517.6683,-366.8907 515.1227,-366.0106 512.7569,-365.114 510.584,-364.2035 508.6173,-363.2814 506.8698,-362.3503 505.3541,-361.4127 504.0827,-360.4713 503.0673,-359.5287 502.319,-358.5873 501.8481,-357.6497 501.6642,-356.7186 501.7756,-355.7965 502.1896,-354.886 502.9125,-353.9894 503.9488,-353.1093 505.3021,-352.2481 506.9741,-351.4082 508.9651,-350.5918 511.274,-349.8012 513.8977,-349.0385 516.8317,-348.3059 520.0696,-347.6054 523.6034,-346.9388 527.4235,-346.308 531.5184,-345.7147 535.8754,-345.1606 540.4797,-344.6472 545.3155,-344.1759 550.3652,-343.7479 555.6102,-343.3645 561.0304,-343.0266 566.6049,-342.7353 572.3116,-342.4913 578.1276,-342.2953 584.0294,-342.1479 589.9929,-342.0493 595.9935,-342 602.0065,-342 608.0071,-342.0493"/>
<text text-anchor="middle" x="599" y="-357.5" font-family="Helvetica,sans-Serif" font-size="10.00" fill="#000000">Android SpeechRecognizer API</text>
</g>
<!-- other_service&#45;&gt;Android SpeechRecognizer -->
<g id="edge5" class="edge">
<title>other_service&#45;&gt;Android SpeechRecognizer</title>
<path fill="none" stroke="#000000" d="M500.382,-414.9551C519.4967,-404.3034 543.7178,-390.8061 563.3722,-379.8537"/>
<polygon fill="#000000" stroke="#000000" points="564.5677,-381.5916 568.7866,-376.8365 562.5232,-377.9228 564.5677,-381.5916"/>
</g>
<!-- Kõnele fast&#45;&gt;Android SpeechRecognizer -->
<g id="edge3" class="edge">
<title>Kõnele fast&#45;&gt;Android SpeechRecognizer</title>
<path fill="none" stroke="#000000" d="M599,-414.9551C599,-405.6545 599,-394.1844 599,-384.1332"/>
<polygon fill="#000000" stroke="#000000" points="601.1001,-384.0903 599,-378.0904 596.9001,-384.0904 601.1001,-384.0903"/>
</g>
<!-- Kõnele grammar&#45;&gt;Android SpeechRecognizer -->
<g id="edge4" class="edge">
<title>Kõnele grammar&#45;&gt;Android SpeechRecognizer</title>
<path fill="none" stroke="#000000" d="M707.4045,-414.9551C686.0598,-404.1345 658.9225,-390.3774 637.1396,-379.3346"/>
<polygon fill="#000000" stroke="#000000" points="638.0248,-377.429 631.7237,-376.5891 636.1257,-381.1752 638.0248,-377.429"/>
</g>
<!-- Android SpeechRecognizer&#45;&gt;Kõnele View -->
<g id="edge8" class="edge">
<title>Android SpeechRecognizer&#45;&gt;Kõnele View</title>
<path fill="none" stroke="#000000" d="M544.9707,-344.1601C507.6167,-333.2089 457.6432,-318.558 417.6422,-306.8308"/>
<polygon fill="#000000" stroke="#000000" points="418.164,-304.7955 411.8155,-305.1226 416.9823,-308.8259 418.164,-304.7955"/>
</g>
<!-- other_ime -->
<g id="node14" class="node">
<title>other_ime</title>
<polygon fill="none" stroke="#000000" points="605,-215 497,-215 497,-179 605,-179 605,-215"/>
<text text-anchor="middle" x="551" y="-194.5" font-family="Helvetica,sans-Serif" font-size="10.00" fill="#000000">some other keyboard</text>
</g>
<!-- Android SpeechRecognizer&#45;&gt;other_ime -->
<g id="edge12" class="edge">
<title>Android SpeechRecognizer&#45;&gt;other_ime</title>
<path fill="none" stroke="#000000" stroke-dasharray="5,2" d="M592.3426,-341.7723C588.5402,-331.113 583.7902,-317.363 580,-305 571.2096,-276.3268 562.4684,-242.9328 556.9178,-220.9557"/>
<polygon fill="#000000" stroke="#000000" points="558.9386,-220.3804 555.4394,-215.0733 554.8652,-221.4042 558.9386,-220.3804"/>
<text text-anchor="middle" x="599.5" y="-284.8" font-family="Verdana" font-size="9.00" fill="#000000">(maybe)</text>
</g>
<!-- Google Translate -->
<g id="node16" class="node">
<title>Google Translate</title>
<polygon fill="none" stroke="#000000" points="618.5,-52 527.5,-52 527.5,-16 618.5,-16 618.5,-52"/>
<text text-anchor="middle" x="573" y="-31.5" font-family="Helvetica,sans-Serif" font-size="10.00" fill="#000000">Google Translate</text>
</g>
<!-- Android SpeechRecognizer&#45;&gt;Google Translate -->
<g id="edge14" class="edge">
<title>Android SpeechRecognizer&#45;&gt;Google Translate</title>
<path fill="none" stroke="#000000" d="M612.8291,-341.8685C622.2422,-327.7135 633,-307.1324 633,-287 633,-287 633,-287 633,-124 633,-97.7374 615.0937,-73.3096 598.8453,-56.5497"/>
<polygon fill="#000000" stroke="#000000" points="600.0514,-54.7861 594.3227,-52.0307 597.0828,-57.7572 600.0514,-54.7861"/>
</g>
<!-- Arvutaja -->
<g id="node17" class="node">
<title>Arvutaja</title>
<polygon fill="none" stroke="#000000" points="691,-52 637,-52 637,-16 691,-16 691,-52"/>
<text text-anchor="middle" x="664" y="-31.5" font-family="Helvetica,sans-Serif" font-size="10.00" fill="#000000">Arvutaja</text>
</g>
<!-- Android SpeechRecognizer&#45;&gt;Arvutaja -->
<g id="edge11" class="edge">
<title>Android SpeechRecognizer&#45;&gt;Arvutaja</title>
<path fill="none" stroke="#000000" d="M632.0498,-342.5971C650.9774,-330.0176 671,-311.0312 671,-287 671,-287 671,-287 671,-124 671,-101.8067 668.8581,-76.6275 666.9439,-58.5566"/>
<polygon fill="#000000" stroke="#000000" points="668.993,-57.9755 666.2534,-52.2392 664.8178,-58.4319 668.993,-57.9755"/>
</g>
<!-- Android RecognizerIntent -->
<g id="node8" class="node">
<title>Android RecognizerIntent</title>
<polygon fill="#32cd32" stroke="#000000" points="211.4719,-106.0493 217.0809,-106.1479 222.632,-106.2953 228.1024,-106.4913 233.47,-106.7353 238.7132,-107.0266 243.8113,-107.3645 248.7446,-107.7479 253.4943,-108.1759 258.0427,-108.6472 262.3734,-109.1606 266.4714,-109.7147 270.323,-110.308 273.9161,-110.9388 277.2399,-111.6054 280.2854,-112.3059 283.045,-113.0385 285.5128,-113.8012 287.6844,-114.5918 289.5572,-115.4082 291.1298,-116.2481 292.4027,-117.1093 293.3774,-117.9894 294.0573,-118.886 294.4468,-119.7965 294.5516,-120.7186 294.3785,-121.6497 293.9357,-122.5873 293.2318,-123.5287 292.2767,-124.4713 291.0809,-125.4127 289.6553,-126.3503 288.0116,-127.2814 286.1618,-128.2035 284.118,-129.114 281.8928,-130.0106 279.4985,-130.8907 276.9475,-131.7519 274.2521,-132.5918 271.4242,-133.4082 268.4756,-134.1988 265.4175,-134.9615 262.2608,-135.6941 259.0156,-136.3946 255.6918,-137.0612 252.2984,-137.692 248.8439,-138.2853 245.3362,-138.8394 241.7824,-139.3528 238.1891,-139.8241 234.5623,-140.2521 230.9072,-140.6355 227.2285,-140.9734 223.5307,-141.2647 219.8174,-141.5087 216.092,-141.7047 212.3577,-141.8521 208.617,-141.9507 204.8728,-142 201.1272,-142 197.383,-141.9507 193.6423,-141.8521 189.908,-141.7047 186.1826,-141.5087 182.4693,-141.2647 178.7715,-140.9734 175.0928,-140.6355 171.4377,-140.2521 167.8109,-139.8241 164.2176,-139.3528 160.6638,-138.8394 157.1561,-138.2853 153.7016,-137.692 150.3082,-137.0612 146.9844,-136.3946 143.7392,-135.6941 140.5825,-134.9615 137.5244,-134.1988 134.5758,-133.4082 131.7479,-132.5918 129.0525,-131.7519 126.5015,-130.8907 124.1072,-130.0106 121.882,-129.114 119.8382,-128.2035 117.9884,-127.2814 116.3447,-126.3503 114.9191,-125.4127 113.7233,-124.4713 112.7682,-123.5287 112.0643,-122.5873 111.6215,-121.6497 111.4484,-120.7186 111.5532,-119.7965 111.9427,-118.886 112.6226,-117.9894 113.5973,-117.1093 114.8702,-116.2481 116.4428,-115.4082 118.3156,-114.5918 120.4872,-113.8012 122.955,-113.0385 125.7146,-112.3059 128.7601,-111.6054 132.0839,-110.9388 135.677,-110.308 139.5286,-109.7147 143.6266,-109.1606 147.9573,-108.6472 152.5057,-108.1759 157.2554,-107.7479 162.1887,-107.3645 167.2868,-107.0266 172.53,-106.7353 177.8976,-106.4913 183.368,-106.2953 188.9191,-106.1479 194.5281,-106.0493 200.1722,-106 205.8278,-106 211.4719,-106.0493"/>
<text text-anchor="middle" x="203" y="-121.5" font-family="Helvetica,sans-Serif" font-size="10.00" fill="#000000">Android RecognizerIntent API</text>
</g>
<!-- Google Keep -->
<g id="node15" class="node">
<title>Google Keep</title>
<polygon fill="none" stroke="#000000" points="509.5,-52 436.5,-52 436.5,-16 509.5,-16 509.5,-52"/>
<text text-anchor="middle" x="473" y="-31.5" font-family="Helvetica,sans-Serif" font-size="10.00" fill="#000000">Google Keep</text>
</g>
<!-- Android RecognizerIntent&#45;&gt;Google Keep -->
<g id="edge13" class="edge">
<title>Android RecognizerIntent&#45;&gt;Google Keep</title>
<path fill="none" stroke="#000000" d="M251.2706,-107.9098C302.2858,-90.9047 381.9556,-64.3481 430.6208,-48.1264"/>
<polygon fill="#000000" stroke="#000000" points="431.3699,-50.0904 436.3979,-46.2007 430.0417,-46.1059 431.3699,-50.0904"/>
</g>
<!-- IME -->
<g id="node9" class="node">
<title>IME</title>
<polygon fill="#32cd32" stroke="#000000" points="480.0754,-106.0493 484.7599,-106.1479 489.396,-106.2953 493.9647,-106.4913 498.4475,-106.7353 502.8265,-107.0266 507.0843,-107.3645 511.2044,-107.7479 515.1712,-108.1759 518.9699,-108.6472 522.5867,-109.1606 526.0093,-109.7147 529.226,-110.308 532.2268,-110.9388 535.0028,-111.6054 537.5462,-112.3059 539.851,-113.0385 541.912,-113.8012 543.7257,-114.5918 545.2898,-115.4082 546.6032,-116.2481 547.6662,-117.1093 548.4803,-117.9894 549.0481,-118.886 549.3734,-119.7965 549.4609,-120.7186 549.3164,-121.6497 548.9465,-122.5873 548.3587,-123.5287 547.561,-124.4713 546.5623,-125.4127 545.3717,-126.3503 543.9989,-127.2814 542.454,-128.2035 540.7471,-129.114 538.8887,-130.0106 536.889,-130.8907 534.7585,-131.7519 532.5074,-132.5918 530.1457,-133.4082 527.6831,-134.1988 525.1291,-134.9615 522.4927,-135.6941 519.7824,-136.3946 517.0065,-137.0612 514.1724,-137.692 511.2874,-138.2853 508.3578,-138.8394 505.3898,-139.3528 502.3888,-139.8241 499.3598,-140.2521 496.3071,-140.6355 493.2349,-140.9734 490.1466,-141.2647 487.0453,-141.5087 483.9341,-141.7047 480.8152,-141.8521 477.6912,-141.9507 474.5641,-142 471.4359,-142 468.3088,-141.9507 465.1848,-141.8521 462.0659,-141.7047 458.9547,-141.5087 455.8534,-141.2647 452.7651,-140.9734 449.6929,-140.6355 446.6402,-140.2521 443.6112,-139.8241 440.6102,-139.3528 437.6422,-138.8394 434.7126,-138.2853 431.8276,-137.692 428.9935,-137.0612 426.2176,-136.3946 423.5073,-135.6941 420.8709,-134.9615 418.3169,-134.1988 415.8543,-133.4082 413.4926,-132.5918 411.2415,-131.7519 409.111,-130.8907 407.1113,-130.0106 405.2529,-129.114 403.546,-128.2035 402.0011,-127.2814 400.6283,-126.3503 399.4377,-125.4127 398.439,-124.4713 397.6413,-123.5287 397.0535,-122.5873 396.6836,-121.6497 396.5391,-120.7186 396.6266,-119.7965 396.9519,-118.886 397.5197,-117.9894 398.3338,-117.1093 399.3968,-116.2481 400.7102,-115.4082 402.2743,-114.5918 404.088,-113.8012 406.149,-113.0385 408.4538,-112.3059 410.9972,-111.6054 413.7732,-110.9388 416.774,-110.308 419.9907,-109.7147 423.4133,-109.1606 427.0301,-108.6472 430.8288,-108.1759 434.7956,-107.7479 438.9157,-107.3645 443.1735,-107.0266 447.5525,-106.7353 452.0353,-106.4913 456.604,-106.2953 461.2401,-106.1479 465.9246,-106.0493 470.6383,-106 475.3617,-106 480.0754,-106.0493"/>
<text text-anchor="middle" x="473" y="-121.5" font-family="Helvetica,sans-Serif" font-size="10.00" fill="#000000">Input Method Editor API</text>
</g>
<!-- IME&#45;&gt;Google Keep -->
<g id="edge18" class="edge">
<title>IME&#45;&gt;Google Keep</title>
<path fill="none" stroke="#000000" d="M473,-105.7872C473,-92.1244 473,-73.2818 473,-58.3293"/>
<polygon fill="#000000" stroke="#000000" points="475.1001,-58.1857 473,-52.1858 470.9001,-58.1858 475.1001,-58.1857"/>
</g>
<!-- IME&#45;&gt;Google Translate -->
<g id="edge19" class="edge">
<title>IME&#45;&gt;Google Translate</title>
<path fill="none" stroke="#000000" d="M492.7568,-106.2189C508.6775,-91.8903 531.151,-71.6641 548.2665,-56.2601"/>
<polygon fill="#000000" stroke="#000000" points="549.887,-57.627 552.942,-52.0522 547.0774,-54.5051 549.887,-57.627"/>
</g>
<!-- other_activity -->
<g id="node10" class="node">
<title>other_activity</title>
<polygon fill="none" stroke="#000000" points="119.5,-215 16.5,-215 16.5,-179 119.5,-179 119.5,-215"/>
<text text-anchor="middle" x="68" y="-200" font-family="Helvetica,sans-Serif" font-size="10.00" fill="#000000">some other activity:</text>
<text text-anchor="middle" x="68" y="-189" font-family="Helvetica,sans-Serif" font-size="10.00" fill="#000000">Google, ...</text>
</g>
<!-- other_activity&#45;&gt;Android RecognizerIntent -->
<g id="edge7" class="edge">
<title>other_activity&#45;&gt;Android RecognizerIntent</title>
<path fill="none" stroke="#000000" d="M101.3708,-178.9551C121.2966,-168.1803 146.6071,-154.4939 166.9843,-143.4752"/>
<polygon fill="#000000" stroke="#000000" points="168.0427,-145.2903 172.3216,-140.5891 166.0449,-141.5958 168.0427,-145.2903"/>
</g>
<!-- panel&#45;&gt;Android RecognizerIntent -->
<g id="edge6" class="edge">
<title>panel&#45;&gt;Android RecognizerIntent</title>
<path fill="none" stroke="#000000" d="M203,-178.9551C203,-169.6545 203,-158.1844 203,-148.1332"/>
<polygon fill="#000000" stroke="#000000" points="205.1001,-148.0903 203,-142.0904 200.9001,-148.0904 205.1001,-148.0903"/>
</g>
<!-- Kõnele IME&#45;&gt;IME -->
<g id="edge16" class="edge">
<title>Kõnele IME&#45;&gt;IME</title>
<path fill="none" stroke="#000000" d="M380.4045,-178.9551C398.4563,-168.2414 421.3588,-154.6489 439.8698,-143.6626"/>
<polygon fill="#000000" stroke="#000000" points="441.3755,-145.2111 445.4634,-140.3429 439.2319,-141.5993 441.3755,-145.2111"/>
</g>
<!-- Gboard -->
<g id="node13" class="node">
<title>Gboard</title>
<polygon fill="none" stroke="#000000" points="479,-215 425,-215 425,-179 479,-179 479,-215"/>
<text text-anchor="middle" x="452" y="-194.5" font-family="Helvetica,sans-Serif" font-size="10.00" fill="#000000">Gboard</text>
</g>
<!-- Gboard&#45;&gt;IME -->
<g id="edge15" class="edge">
<title>Gboard&#45;&gt;IME</title>
<path fill="none" stroke="#000000" d="M457.191,-178.9551C459.8665,-169.6545 463.1661,-158.1844 466.0576,-148.1332"/>
<polygon fill="#000000" stroke="#000000" points="468.1553,-148.4371 467.7959,-142.0904 464.1189,-147.2759 468.1553,-148.4371"/>
</g>
<!-- other_ime&#45;&gt;IME -->
<g id="edge17" class="edge">
<title>other_ime&#45;&gt;IME</title>
<path fill="none" stroke="#000000" d="M531.7191,-178.9551C520.8863,-168.8166 507.2989,-156.1003 495.9235,-145.454"/>
<polygon fill="#000000" stroke="#000000" points="497.3377,-143.9014 491.522,-141.3347 494.4678,-146.9679 497.3377,-143.9014"/>
</g>
</g>
</svg>
