<?xml version="1.0" encoding="UTF-8" standalone="no"?>
<!DOCTYPE svg PUBLIC "-//W3C//DTD SVG 1.1//EN"
 "http://www.w3.org/Graphics/SVG/1.1/DTD/svg11.dtd">
<!-- Generated by graphviz version 2.38.0 (20140413.2041)
 -->
<!-- Title: G Pages: 1 -->
<svg width="904pt" height="593pt"
 viewBox="0.00 0.00 904.00 593.00" xmlns="http://www.w3.org/2000/svg" xmlns:xlink="http://www.w3.org/1999/xlink">
<g id="graph0" class="graph" transform="scale(1 1) rotate(0) translate(4 589)">
<title>G</title>
<polygon fill="white" stroke="none" points="-4,4 -4,-589 900,-589 900,4 -4,4"/>
<g id="clust1" class="cluster"><title>cluster_0</title>
<polygon fill="lightblue" stroke="lightblue" points="582,-506 582,-577 856,-577 856,-506 582,-506"/>
<text text-anchor="middle" x="719" y="-565" font-family="Helvetica,sans-Serif" font-size="10.00">Cloud speech servers</text>
</g>
<g id="clust2" class="cluster"><title>cluster_1</title>
<polygon fill="none" stroke="black" stroke-dasharray="1,5" points="390,-407 390,-478 860,-478 860,-407 390,-407"/>
<text text-anchor="middle" x="625" y="-466" font-family="Helvetica,sans-Serif" font-size="10.00">Android speech services</text>
</g>
<g id="clust3" class="cluster"><title>cluster_2</title>
<polygon fill="none" stroke="black" stroke-dasharray="1,5" points="8,-171 8,-242 277,-242 277,-171 8,-171"/>
<text text-anchor="middle" x="142.5" y="-230" font-family="Helvetica,sans-Serif" font-size="10.00">Android RecognizerIntent activities</text>
</g>
<g id="clust4" class="cluster"><title>cluster_3</title>
<polygon fill="none" stroke="black" stroke-dasharray="1,5" points="285,-171 285,-242 661,-242 661,-171 285,-171"/>
<text text-anchor="middle" x="473" y="-230" font-family="Helvetica,sans-Serif" font-size="10.00">Android keyboard apps</text>
</g>
<g id="clust5" class="cluster"><title>cluster_4</title>
<polygon fill="lightgrey" stroke="lightgrey" points="471,-8 471,-79 742,-79 742,-8 471,-8"/>
<text text-anchor="middle" x="606.5" y="-67" font-family="Helvetica,sans-Serif" font-size="10.00">Android apps</text>
</g>
<!-- Kõnele View -->
<g id="node1" class="node"><title>Kõnele View</title>
<polygon fill="yellow" stroke="black" points="417,-305 293,-305 293,-301 289,-301 289,-297 293,-297 293,-277 289,-277 289,-273 293,-273 293,-269 417,-269 417,-305"/>
<polyline fill="none" stroke="black" points="293,-301 297,-301 297,-297 293,-297 "/>
<polyline fill="none" stroke="black" points="293,-277 297,-277 297,-273 293,-273 "/>
<text text-anchor="middle" x="355" y="-290" font-family="Helvetica,sans-Serif" font-size="10.00">Kõnele mic+swipe editor</text>
<text text-anchor="middle" x="355" y="-279" font-family="Helvetica,sans-Serif" font-size="10.00">(view component)</text>
</g>
<!-- panel -->
<g id="node11" class="node"><title>panel</title>
<polygon fill="yellow" stroke="black" points="268.5,-215 137.5,-215 137.5,-179 268.5,-179 268.5,-215"/>
<text text-anchor="middle" x="203" y="-194.5" font-family="Helvetica,sans-Serif" font-size="10.00">Kõnele voice search panel</text>
</g>
<!-- Kõnele View&#45;&gt;panel -->
<g id="edge10" class="edge"><title>Kõnele View&#45;&gt;panel</title>
<path fill="none" stroke="black" d="M325.332,-268.824C300.328,-254.348 264.504,-233.607 238.081,-218.31"/>
<polygon fill="black" stroke="black" points="238.838,-216.322 232.593,-215.133 236.734,-219.957 238.838,-216.322"/>
</g>
<!-- Kõnele IME -->
<g id="node12" class="node"><title>Kõnele IME</title>
<polygon fill="yellow" stroke="black" points="417,-215 293,-215 293,-179 417,-179 417,-215"/>
<text text-anchor="middle" x="355" y="-194.5" font-family="Helvetica,sans-Serif" font-size="10.00">Kõnele speech keyboard</text>
</g>
<!-- Kõnele View&#45;&gt;Kõnele IME -->
<g id="edge9" class="edge"><title>Kõnele View&#45;&gt;Kõnele IME</title>
<path fill="none" stroke="black" d="M355,-268.614C355,-255.027 355,-236.017 355,-221.144"/>
<polygon fill="black" stroke="black" points="357.1,-221.05 355,-215.05 352.9,-221.05 357.1,-221.05"/>
</g>
<!-- kaldi -->
<g id="node2" class="node"><title>kaldi</title>
<polygon fill="none" stroke="black" points="703.5,-550 590.5,-550 590.5,-514 703.5,-514 703.5,-550"/>
<text text-anchor="middle" x="647" y="-529.5" font-family="Helvetica,sans-Serif" font-size="10.00">kaldi&#45;gstreamer&#45;server</text>
</g>
<!-- Kõnele fast -->
<g id="node5" class="node"><title>Kõnele fast</title>
<polygon fill="yellow" stroke="black" points="704,-451 582,-451 582,-415 704,-415 704,-451"/>
<text text-anchor="middle" x="643" y="-430.5" font-family="Helvetica,sans-Serif" font-size="10.00">Kõnele (fast recognition)</text>
</g>
<!-- kaldi&#45;&gt;Kõnele fast -->
<g id="edge1" class="edge"><title>kaldi&#45;&gt;Kõnele fast</title>
<path fill="none" stroke="black" d="M646.285,-513.658C645.636,-497.934 644.675,-474.631 643.96,-457.287"/>
<polygon fill="black" stroke="black" points="646.054,-457.1 643.709,-451.192 641.858,-457.273 646.054,-457.1"/>
<text text-anchor="middle" x="671.5" y="-488.8" font-family="monospace" font-size="9.00">WebSockets</text>
</g>
<!-- pocketsphinx -->
<g id="node3" class="node"><title>pocketsphinx</title>
<polygon fill="none" stroke="black" points="848,-550 722,-550 722,-514 848,-514 848,-550"/>
<text text-anchor="middle" x="785" y="-529.5" font-family="Helvetica,sans-Serif" font-size="10.00">ruby&#45;pocketsphinx&#45;server</text>
</g>
<!-- Kõnele grammar -->
<g id="node6" class="node"><title>Kõnele grammar</title>
<polygon fill="yellow" stroke="black" points="851.5,-451 722.5,-451 722.5,-415 851.5,-415 851.5,-451"/>
<text text-anchor="middle" x="787" y="-430.5" font-family="Helvetica,sans-Serif" font-size="10.00">Kõnele (grammar support)</text>
</g>
<!-- pocketsphinx&#45;&gt;Kõnele grammar -->
<g id="edge2" class="edge"><title>pocketsphinx&#45;&gt;Kõnele grammar</title>
<path fill="none" stroke="black" d="M785.358,-513.658C785.682,-497.934 786.162,-474.631 786.52,-457.287"/>
<polygon fill="black" stroke="black" points="788.621,-457.234 786.646,-451.192 784.422,-457.147 788.621,-457.234"/>
<text text-anchor="middle" x="840.5" y="-488.8" font-family="monospace" font-size="9.00">net&#45;speech&#45;api (HTTP)</text>
</g>
<!-- other_service -->
<g id="node4" class="node"><title>other_service</title>
<polygon fill="none" stroke="black" points="564,-451 398,-451 398,-415 564,-415 564,-451"/>
<text text-anchor="middle" x="481" y="-436" font-family="Helvetica,sans-Serif" font-size="10.00">some other service:</text>
<text text-anchor="middle" x="481" y="-425" font-family="Helvetica,sans-Serif" font-size="10.00">Google, Inimesed (future work), ...</text>
</g>
<!-- Android SpeechRecognizer -->
<g id="node7" class="node"><title>Android SpeechRecognizer</title>
<polygon fill="lightgreen" stroke="black" points="652.007,-342.049 657.971,-342.148 663.872,-342.295 669.688,-342.491 675.395,-342.735 680.97,-343.027 686.39,-343.364 691.635,-343.748 696.685,-344.176 701.52,-344.647 706.125,-345.161 710.482,-345.715 714.577,-346.308 718.397,-346.939 721.93,-347.605 725.168,-348.306 728.102,-349.039 730.726,-349.801 733.035,-350.592 735.026,-351.408 736.698,-352.248 738.051,-353.109 739.088,-353.989 739.81,-354.886 740.224,-355.797 740.336,-356.719 740.152,-357.65 739.681,-358.587 738.933,-359.529 737.917,-360.471 736.646,-361.413 735.13,-362.35 733.383,-363.281 731.416,-364.203 729.243,-365.114 726.877,-366.011 724.332,-366.891 721.62,-367.752 718.754,-368.592 715.747,-369.408 712.612,-370.199 709.361,-370.961 706.005,-371.694 702.555,-372.395 699.021,-373.061 695.413,-373.692 691.74,-374.285 688.011,-374.839 684.233,-375.353 680.412,-375.824 676.556,-376.252 672.67,-376.636 668.759,-376.973 664.828,-377.265 660.88,-377.509 656.919,-377.705 652.949,-377.852 648.972,-377.951 644.991,-378 641.009,-378 637.028,-377.951 633.051,-377.852 629.081,-377.705 625.12,-377.509 621.172,-377.265 617.241,-376.973 613.33,-376.636 609.444,-376.252 605.588,-375.824 601.767,-375.353 597.989,-374.839 594.26,-374.285 590.587,-373.692 586.979,-373.061 583.445,-372.395 579.995,-371.694 576.639,-370.961 573.388,-370.199 570.253,-369.408 567.246,-368.592 564.38,-367.752 561.668,-366.891 559.123,-366.011 556.757,-365.114 554.584,-364.203 552.617,-363.281 550.87,-362.35 549.354,-361.413 548.083,-360.471 547.067,-359.529 546.319,-358.587 545.848,-357.65 545.664,-356.719 545.776,-355.797 546.19,-354.886 546.912,-353.989 547.949,-353.109 549.302,-352.248 550.974,-351.408 552.965,-350.592 555.274,-349.801 557.898,-349.039 560.832,-348.306 564.07,-347.605 567.603,-346.939 571.423,-346.308 575.518,-345.715 579.875,-345.161 584.48,-344.647 589.315,-344.176 594.365,-343.748 599.61,-343.364 605.03,-343.027 610.605,-342.735 616.312,-342.491 622.128,-342.295 628.029,-342.148 633.993,-342.049 639.993,-342 646.007,-342 652.007,-342.049"/>
<text text-anchor="middle" x="643" y="-357.5" font-family="Helvetica,sans-Serif" font-size="10.00">Android SpeechRecognizer API</text>
</g>
<!-- other_service&#45;&gt;Android SpeechRecognizer -->
<g id="edge5" class="edge"><title>other_service&#45;&gt;Android SpeechRecognizer</title>
<path fill="none" stroke="black" d="M519.803,-414.994C544.866,-404.009 577.407,-389.748 602.751,-378.64"/>
<polygon fill="black" stroke="black" points="603.719,-380.509 608.371,-376.177 602.033,-376.662 603.719,-380.509"/>
</g>
<!-- Kõnele fast&#45;&gt;Android SpeechRecognizer -->
<g id="edge3" class="edge"><title>Kõnele fast&#45;&gt;Android SpeechRecognizer</title>
<path fill="none" stroke="black" d="M643,-414.813C643,-405.569 643,-394.043 643,-384.032"/>
<polygon fill="black" stroke="black" points="645.1,-384.029 643,-378.029 640.9,-384.029 645.1,-384.029"/>
</g>
<!-- Kõnele grammar&#45;&gt;Android SpeechRecognizer -->
<g id="edge4" class="edge"><title>Kõnele grammar&#45;&gt;Android SpeechRecognizer</title>
<path fill="none" stroke="black" d="M752.508,-414.994C730.724,-404.253 702.584,-390.378 680.285,-379.384"/>
<polygon fill="black" stroke="black" points="681.059,-377.424 674.749,-376.654 679.202,-381.191 681.059,-377.424"/>
</g>
<!-- Android SpeechRecognizer&#45;&gt;Kõnele View -->
<g id="edge8" class="edge"><title>Android SpeechRecognizer&#45;&gt;Kõnele View</title>
<path fill="none" stroke="black" d="M584.372,-344.547C537.591,-333.014 471.998,-316.843 422.931,-304.747"/>
<polygon fill="black" stroke="black" points="423.36,-302.69 417.032,-303.293 422.355,-306.768 423.36,-302.69"/>
</g>
<!-- other_ime -->
<g id="node14" class="node"><title>other_ime</title>
<polygon fill="none" stroke="black" points="653,-215 545,-215 545,-179 653,-179 653,-215"/>
<text text-anchor="middle" x="599" y="-194.5" font-family="Helvetica,sans-Serif" font-size="10.00">some other keyboard</text>
</g>
<!-- Android SpeechRecognizer&#45;&gt;other_ime -->
<g id="edge12" class="edge"><title>Android SpeechRecognizer&#45;&gt;other_ime</title>
<path fill="none" stroke="black" stroke-dasharray="5,2" d="M638.244,-341.983C635.28,-331.356 631.399,-317.386 628,-305 620.073,-276.113 611.066,-242.802 605.222,-221.123"/>
<polygon fill="black" stroke="black" points="607.177,-220.305 603.588,-215.058 603.121,-221.398 607.177,-220.305"/>
<text text-anchor="middle" x="647.5" y="-284.8" font-family="Verdana" font-size="9.00">(maybe)</text>
</g>
<!-- Google Translate -->
<g id="node16" class="node"><title>Google Translate</title>
<polygon fill="none" stroke="black" points="661.5,-52 570.5,-52 570.5,-16 661.5,-16 661.5,-52"/>
<text text-anchor="middle" x="616" y="-31.5" font-family="Helvetica,sans-Serif" font-size="10.00">Google Translate</text>
</g>
<!-- Android SpeechRecognizer&#45;&gt;Google Translate -->
<g id="edge14" class="edge"><title>Android SpeechRecognizer&#45;&gt;Google Translate</title>
<path fill="none" stroke="black" d="M658.237,-341.964C668.809,-328.358 681,-308.272 681,-288 681,-288 681,-288 681,-123 681,-96.4372 661.602,-72.6341 643.999,-56.5028"/>
<polygon fill="black" stroke="black" points="644.983,-54.5685 639.1,-52.1605 642.197,-57.7117 644.983,-54.5685"/>
</g>
<!-- Arvutaja -->
<g id="node17" class="node"><title>Arvutaja</title>
<polygon fill="none" stroke="black" points="734,-52 680,-52 680,-16 734,-16 734,-52"/>
<text text-anchor="middle" x="707" y="-31.5" font-family="Helvetica,sans-Serif" font-size="10.00">Arvutaja</text>
</g>
<!-- Android SpeechRecognizer&#45;&gt;Arvutaja -->
<g id="edge11" class="edge"><title>Android SpeechRecognizer&#45;&gt;Arvutaja</title>
<path fill="none" stroke="black" d="M677.886,-342.746C697.865,-330.788 719,-312.376 719,-288 719,-288 719,-288 719,-123 719,-100.89 715.235,-75.9402 711.923,-58.2682"/>
<polygon fill="black" stroke="black" points="713.932,-57.5974 710.731,-52.1054 709.809,-58.3951 713.932,-57.5974"/>
</g>
<!-- Android RecognizerIntent -->
<g id="node8" class="node"><title>Android RecognizerIntent</title>
<polygon fill="lightgreen" stroke="black" points="211.472,-106.049 217.081,-106.148 222.632,-106.295 228.102,-106.491 233.47,-106.735 238.713,-107.027 243.811,-107.364 248.745,-107.748 253.494,-108.176 258.043,-108.647 262.373,-109.161 266.471,-109.715 270.323,-110.308 273.916,-110.939 277.24,-111.605 280.285,-112.306 283.045,-113.039 285.513,-113.801 287.684,-114.592 289.557,-115.408 291.13,-116.248 292.403,-117.109 293.377,-117.989 294.057,-118.886 294.447,-119.797 294.552,-120.719 294.379,-121.65 293.936,-122.587 293.232,-123.529 292.277,-124.471 291.081,-125.413 289.655,-126.35 288.012,-127.281 286.162,-128.203 284.118,-129.114 281.893,-130.011 279.498,-130.891 276.947,-131.752 274.252,-132.592 271.424,-133.408 268.476,-134.199 265.418,-134.961 262.261,-135.694 259.016,-136.395 255.692,-137.061 252.298,-137.692 248.844,-138.285 245.336,-138.839 241.782,-139.353 238.189,-139.824 234.562,-140.252 230.907,-140.636 227.229,-140.973 223.531,-141.265 219.817,-141.509 216.092,-141.705 212.358,-141.852 208.617,-141.951 204.873,-142 201.127,-142 197.383,-141.951 193.642,-141.852 189.908,-141.705 186.183,-141.509 182.469,-141.265 178.771,-140.973 175.093,-140.636 171.438,-140.252 167.811,-139.824 164.218,-139.353 160.664,-138.839 157.156,-138.285 153.702,-137.692 150.308,-137.061 146.984,-136.395 143.739,-135.694 140.582,-134.961 137.524,-134.199 134.576,-133.408 131.748,-132.592 129.053,-131.752 126.502,-130.891 124.107,-130.011 121.882,-129.114 119.838,-128.203 117.988,-127.281 116.345,-126.35 114.919,-125.413 113.723,-124.471 112.768,-123.529 112.064,-122.587 111.621,-121.65 111.448,-120.719 111.553,-119.797 111.943,-118.886 112.623,-117.989 113.597,-117.109 114.87,-116.248 116.443,-115.408 118.316,-114.592 120.487,-113.801 122.955,-113.039 125.715,-112.306 128.76,-111.605 132.084,-110.939 135.677,-110.308 139.529,-109.715 143.627,-109.161 147.957,-108.647 152.506,-108.176 157.255,-107.748 162.189,-107.364 167.287,-107.027 172.53,-106.735 177.898,-106.491 183.368,-106.295 188.919,-106.148 194.528,-106.049 200.172,-106 205.828,-106 211.472,-106.049"/>
<text text-anchor="middle" x="203" y="-121.5" font-family="Helvetica,sans-Serif" font-size="10.00">Android RecognizerIntent API</text>
</g>
<!-- Google Keep -->
<g id="node15" class="node"><title>Google Keep</title>
<polygon fill="none" stroke="black" points="552.5,-52 479.5,-52 479.5,-16 552.5,-16 552.5,-52"/>
<text text-anchor="middle" x="516" y="-31.5" font-family="Helvetica,sans-Serif" font-size="10.00">Google Keep</text>
</g>
<!-- Android RecognizerIntent&#45;&gt;Google Keep -->
<g id="edge13" class="edge"><title>Android RecognizerIntent&#45;&gt;Google Keep</title>
<path fill="none" stroke="black" d="M255.389,-108.271C316.509,-91.0869 416.402,-63.0021 473.117,-47.0565"/>
<polygon fill="black" stroke="black" points="473.933,-49.0086 479.141,-45.363 472.796,-44.9654 473.933,-49.0086"/>
</g>
<!-- IME -->
<g id="node9" class="node"><title>IME</title>
<polygon fill="lightgreen" stroke="black" points="523.075,-106.049 527.76,-106.148 532.396,-106.295 536.965,-106.491 541.448,-106.735 545.826,-107.027 550.084,-107.364 554.204,-107.748 558.171,-108.176 561.97,-108.647 565.587,-109.161 569.009,-109.715 572.226,-110.308 575.227,-110.939 578.003,-111.605 580.546,-112.306 582.851,-113.039 584.912,-113.801 586.726,-114.592 588.29,-115.408 589.603,-116.248 590.666,-117.109 591.48,-117.989 592.048,-118.886 592.373,-119.797 592.461,-120.719 592.316,-121.65 591.947,-122.587 591.359,-123.529 590.561,-124.471 589.562,-125.413 588.372,-126.35 586.999,-127.281 585.454,-128.203 583.747,-129.114 581.889,-130.011 579.889,-130.891 577.759,-131.752 575.507,-132.592 573.146,-133.408 570.683,-134.199 568.129,-134.961 565.493,-135.694 562.782,-136.395 560.006,-137.061 557.172,-137.692 554.287,-138.285 551.358,-138.839 548.39,-139.353 545.389,-139.824 542.36,-140.252 539.307,-140.636 536.235,-140.973 533.147,-141.265 530.045,-141.509 526.934,-141.705 523.815,-141.852 520.691,-141.951 517.564,-142 514.436,-142 511.309,-141.951 508.185,-141.852 505.066,-141.705 501.955,-141.509 498.853,-141.265 495.765,-140.973 492.693,-140.636 489.64,-140.252 486.611,-139.824 483.61,-139.353 480.642,-138.839 477.713,-138.285 474.828,-137.692 471.994,-137.061 469.218,-136.395 466.507,-135.694 463.871,-134.961 461.317,-134.199 458.854,-133.408 456.493,-132.592 454.241,-131.752 452.111,-130.891 450.111,-130.011 448.253,-129.114 446.546,-128.203 445.001,-127.281 443.628,-126.35 442.438,-125.413 441.439,-124.471 440.641,-123.529 440.053,-122.587 439.684,-121.65 439.539,-120.719 439.627,-119.797 439.952,-118.886 440.52,-117.989 441.334,-117.109 442.397,-116.248 443.71,-115.408 445.274,-114.592 447.088,-113.801 449.149,-113.039 451.454,-112.306 453.997,-111.605 456.773,-110.939 459.774,-110.308 462.991,-109.715 466.413,-109.161 470.03,-108.647 473.829,-108.176 477.796,-107.748 481.916,-107.364 486.174,-107.027 490.552,-106.735 495.035,-106.491 499.604,-106.295 504.24,-106.148 508.925,-106.049 513.638,-106 518.362,-106 523.075,-106.049"/>
<text text-anchor="middle" x="516" y="-121.5" font-family="Helvetica,sans-Serif" font-size="10.00">Input Method Editor API</text>
</g>
<!-- IME&#45;&gt;Google Keep -->
<g id="edge18" class="edge"><title>IME&#45;&gt;Google Keep</title>
<path fill="none" stroke="black" d="M516,-105.614C516,-92.0272 516,-73.0172 516,-58.1437"/>
<polygon fill="black" stroke="black" points="518.1,-58.0504 516,-52.0504 513.9,-58.0504 518.1,-58.0504"/>
</g>
<!-- IME&#45;&gt;Google Translate -->
<g id="edge19" class="edge"><title>IME&#45;&gt;Google Translate</title>
<path fill="none" stroke="black" d="M535.281,-106.033C551.363,-91.8804 574.368,-71.6361 591.707,-56.3777"/>
<polygon fill="black" stroke="black" points="593.32,-57.7558 596.437,-52.2155 590.545,-54.6028 593.32,-57.7558"/>
</g>
<!-- other_activity -->
<g id="node10" class="node"><title>other_activity</title>
<polygon fill="none" stroke="black" points="119.5,-215 16.5,-215 16.5,-179 119.5,-179 119.5,-215"/>
<text text-anchor="middle" x="68" y="-200" font-family="Helvetica,sans-Serif" font-size="10.00">some other activity:</text>
<text text-anchor="middle" x="68" y="-189" font-family="Helvetica,sans-Serif" font-size="10.00">Google, ...</text>
</g>
<!-- other_activity&#45;&gt;Android RecognizerIntent -->
<g id="edge7" class="edge"><title>other_activity&#45;&gt;Android RecognizerIntent</title>
<path fill="none" stroke="black" d="M100.336,-178.994C120.672,-168.298 146.916,-154.496 167.779,-143.524"/>
<polygon fill="black" stroke="black" points="168.902,-145.306 173.235,-140.654 166.947,-141.588 168.902,-145.306"/>
</g>
<!-- panel&#45;&gt;Android RecognizerIntent -->
<g id="edge6" class="edge"><title>panel&#45;&gt;Android RecognizerIntent</title>
<path fill="none" stroke="black" d="M203,-178.813C203,-169.569 203,-158.043 203,-148.032"/>
<polygon fill="black" stroke="black" points="205.1,-148.029 203,-142.029 200.9,-148.029 205.1,-148.029"/>
</g>
<!-- Kõnele IME&#45;&gt;IME -->
<g id="edge16" class="edge"><title>Kõnele IME&#45;&gt;IME</title>
<path fill="none" stroke="black" d="M393.564,-178.994C419.077,-167.742 452.388,-153.052 477.823,-141.836"/>
<polygon fill="black" stroke="black" points="478.809,-143.696 483.452,-139.354 477.115,-139.853 478.809,-143.696"/>
</g>
<!-- Google Keyboard -->
<g id="node13" class="node"><title>Google Keyboard</title>
<polygon fill="none" stroke="black" points="527,-215 435,-215 435,-179 527,-179 527,-215"/>
<text text-anchor="middle" x="481" y="-194.5" font-family="Helvetica,sans-Serif" font-size="10.00">Google Keyboard</text>
</g>
<!-- Google Keyboard&#45;&gt;IME -->
<g id="edge15" class="edge"><title>Google Keyboard&#45;&gt;IME</title>
<path fill="none" stroke="black" d="M489.473,-178.813C494.116,-169.394 499.926,-157.607 504.925,-147.467"/>
<polygon fill="black" stroke="black" points="506.836,-148.339 507.605,-142.029 503.069,-146.482 506.836,-148.339"/>
</g>
<!-- other_ime&#45;&gt;IME -->
<g id="edge17" class="edge"><title>other_ime&#45;&gt;IME</title>
<path fill="none" stroke="black" d="M578.908,-178.813C567.133,-168.741 552.193,-155.96 539.827,-145.382"/>
<polygon fill="black" stroke="black" points="540.976,-143.602 535.052,-141.297 538.246,-146.793 540.976,-143.602"/>
</g>
</g>
</svg>
