<?xml version="1.0" encoding="UTF-8" standalone="no"?>
<!DOCTYPE svg PUBLIC "-//W3C//DTD SVG 1.1//EN"
 "http://www.w3.org/Graphics/SVG/1.1/DTD/svg11.dtd">
<!-- Generated by graphviz version 2.43.0 (0)
 -->
<!-- Title: G Pages: 1 -->
<svg width="992pt" height="586pt"
 viewBox="0.00 0.00 992.00 586.00" xmlns="http://www.w3.org/2000/svg" xmlns:xlink="http://www.w3.org/1999/xlink">
<g id="graph0" class="graph" transform="scale(1 1) rotate(0) translate(4 582)">
<title>G</title>
<polygon fill="white" stroke="transparent" points="-4,4 -4,-582 988,-582 988,4 -4,4"/>
<g id="clust1" class="cluster">
<title>cluster_0</title>
<polygon fill="lightblue" stroke="lightblue" points="664,-497 664,-570 968,-570 968,-497 664,-497"/>
<text text-anchor="middle" x="724.5" y="-558" font-family="Helvetica,sans-Serif" font-size="10.00">Cloud speech servers</text>
</g>
<g id="clust2" class="cluster">
<title>cluster_1</title>
<polygon fill="none" stroke="black" stroke-dasharray="1,5" points="421,-407 421,-478 976,-478 976,-407 421,-407"/>
<text text-anchor="middle" x="488.5" y="-466" font-family="Helvetica,sans-Serif" font-size="10.00">Android speech services</text>
</g>
<g id="clust3" class="cluster">
<title>cluster_2</title>
<polygon fill="none" stroke="black" stroke-dasharray="1,5" points="8,-171 8,-242 300,-242 300,-171 8,-171"/>
<text text-anchor="middle" x="102" y="-230" font-family="Helvetica,sans-Serif" font-size="10.00">Android RecognizerIntent activities</text>
</g>
<g id="clust4" class="cluster">
<title>cluster_3</title>
<polygon fill="none" stroke="black" stroke-dasharray="1,5" points="308,-171 308,-242 658,-242 658,-171 308,-171"/>
<text text-anchor="middle" x="367.5" y="-230" font-family="Helvetica,sans-Serif" font-size="10.00">Android IME services</text>
</g>
<g id="clust5" class="cluster">
<title>cluster_4</title>
<polygon fill="lightgrey" stroke="lightgrey" points="460,-8 460,-79 746,-79 746,-8 460,-8"/>
<text text-anchor="middle" x="500" y="-67" font-family="Helvetica,sans-Serif" font-size="10.00">Android apps</text>
</g>
<!-- Kõnele View -->
<g id="node1" class="node">
<title>Kõnele View</title>
<polygon fill="#ffc400" stroke="black" points="447.5,-305 308.5,-305 308.5,-301 304.5,-301 304.5,-297 308.5,-297 308.5,-277 304.5,-277 304.5,-273 308.5,-273 308.5,-269 447.5,-269 447.5,-305"/>
<polyline fill="none" stroke="black" points="308.5,-301 312.5,-301 312.5,-297 308.5,-297 "/>
<polyline fill="none" stroke="black" points="308.5,-277 312.5,-277 312.5,-273 308.5,-273 "/>
<text text-anchor="middle" x="378" y="-290" font-family="Helvetica,sans-Serif" font-size="10.00">Kõnele mic+swipe editor</text>
<text text-anchor="middle" x="378" y="-279" font-family="Helvetica,sans-Serif" font-size="10.00">(view component)</text>
</g>
<!-- panel -->
<g id="node12" class="node">
<title>panel</title>
<polygon fill="#ffc400" stroke="black" points="292,-215 148,-215 148,-179 292,-179 292,-215"/>
<text text-anchor="middle" x="220" y="-194.5" font-family="Helvetica,sans-Serif" font-size="10.00">Kõnele voice search panel</text>
</g>
<!-- Kõnele View&#45;&gt;panel -->
<g id="edge12" class="edge">
<title>Kõnele View&#45;&gt;panel</title>
<path fill="none" stroke="black" d="M347.16,-268.82C321.06,-254.29 283.62,-233.43 256.12,-218.12"/>
<polygon fill="black" stroke="black" points="257.02,-216.22 250.76,-215.13 254.98,-219.89 257.02,-216.22"/>
</g>
<!-- Kõnele IME -->
<g id="node13" class="node">
<title>Kõnele IME</title>
<polygon fill="#ffc400" stroke="black" points="440,-215 316,-215 316,-179 440,-179 440,-215"/>
<text text-anchor="middle" x="378" y="-194.5" font-family="Helvetica,sans-Serif" font-size="10.00">Kõnele speak &amp; swipe</text>
</g>
<!-- Kõnele View&#45;&gt;Kõnele IME -->
<g id="edge11" class="edge">
<title>Kõnele View&#45;&gt;Kõnele IME</title>
<path fill="none" stroke="black" d="M378,-268.61C378,-255.03 378,-236.02 378,-221.14"/>
<polygon fill="black" stroke="black" points="380.1,-221.05 378,-215.05 375.9,-221.05 380.1,-221.05"/>
</g>
<!-- kaldi -->
<g id="node2" class="node">
<title>kaldi</title>
<polygon fill="none" stroke="black" points="800,-543 672,-543 672,-505 800,-505 800,-543"/>
<text text-anchor="start" x="680" y="-532" font-family="Helvetica,sans-Serif" font-size="10.00">kaldi&#45;gstreamer&#45;server</text>
<text text-anchor="start" x="705.5" y="-512" font-family="Helvetica,sans-Serif" font-style="italic" font-size="10.00">WebSockets</text>
</g>
<!-- Kõnele service -->
<g id="node5" class="node">
<title>Kõnele service</title>
<polygon fill="yellow" stroke="black" points="649,-451 561,-451 561,-415 649,-415 649,-451"/>
<text text-anchor="middle" x="605" y="-430.5" font-family="Helvetica,sans-Serif" font-size="10.00">Kõnele service</text>
</g>
<!-- kaldi&#45;&gt;Kõnele service -->
<g id="edge2" class="edge">
<title>kaldi&#45;&gt;Kõnele service</title>
<path fill="none" stroke="black" d="M702.33,-504.82C688.59,-497.03 672.74,-487.53 659,-478 648.84,-470.96 638.19,-462.53 629.06,-454.94"/>
<polygon fill="black" stroke="black" points="630.38,-453.3 624.43,-451.06 627.68,-456.52 630.38,-453.3"/>
</g>
<!-- Kõnele fast -->
<g id="node6" class="node">
<title>Kõnele fast</title>
<polygon fill="#ffc400" stroke="black" points="804.5,-451 667.5,-451 667.5,-415 804.5,-415 804.5,-451"/>
<text text-anchor="start" x="675.5" y="-431.5" font-family="Helvetica,sans-Serif" text-decoration="line-through" font-size="10.00">Kõnele (fast recognition)</text>
</g>
<!-- kaldi&#45;&gt;Kõnele fast -->
<g id="edge1" class="edge">
<title>kaldi&#45;&gt;Kõnele fast</title>
<path fill="none" stroke="black" d="M736,-504.99C736,-491.21 736,-472.11 736,-457.19"/>
<polygon fill="black" stroke="black" points="738.1,-457.08 736,-451.08 733.9,-457.08 738.1,-457.08"/>
</g>
<!-- pocketsphinx -->
<g id="node3" class="node">
<title>pocketsphinx</title>
<polygon fill="none" stroke="black" points="959.5,-543 818.5,-543 818.5,-505 959.5,-505 959.5,-543"/>
<text text-anchor="start" x="826.5" y="-532" font-family="Helvetica,sans-Serif" text-decoration="line-through" font-size="10.00">ruby&#45;pocketsphinx&#45;server</text>
<text text-anchor="start" x="834.5" y="-512" font-family="Helvetica,sans-Serif" font-style="italic" text-decoration="line-through" font-size="10.00">net&#45;speech&#45;api (HTTP)</text>
</g>
<!-- Kõnele grammar -->
<g id="node7" class="node">
<title>Kõnele grammar</title>
<polygon fill="#ffc400" stroke="black" points="967.5,-451 822.5,-451 822.5,-415 967.5,-415 967.5,-451"/>
<text text-anchor="start" x="830.5" y="-431.5" font-family="Helvetica,sans-Serif" text-decoration="line-through" font-size="10.00">Kõnele (grammar support)</text>
</g>
<!-- pocketsphinx&#45;&gt;Kõnele grammar -->
<g id="edge3" class="edge">
<title>pocketsphinx&#45;&gt;Kõnele grammar</title>
<path fill="none" stroke="black" d="M890.21,-504.99C891.14,-491.21 892.43,-472.11 893.44,-457.19"/>
<polygon fill="black" stroke="black" points="895.54,-457.21 893.85,-451.08 891.35,-456.92 895.54,-457.21"/>
</g>
<!-- other_service -->
<g id="node4" class="node">
<title>other_service</title>
<polygon fill="none" stroke="black" points="542.5,-451 429.5,-451 429.5,-415 542.5,-415 542.5,-451"/>
<text text-anchor="middle" x="486" y="-436" font-family="Helvetica,sans-Serif" font-size="10.00">some other service:</text>
<text text-anchor="middle" x="486" y="-425" font-family="Helvetica,sans-Serif" font-size="10.00">Google, ...</text>
</g>
<!-- Android SpeechRecognizer -->
<g id="node8" class="node">
<title>Android SpeechRecognizer</title>
<polygon fill="#99cc33" stroke="black" points="653.57,-342.05 659.9,-342.15 666.17,-342.3 672.34,-342.49 678.4,-342.74 684.32,-343.03 690.08,-343.36 695.65,-343.75 701.01,-344.18 706.15,-344.65 711.04,-345.16 715.67,-345.71 720.02,-346.31 724.07,-346.94 727.83,-347.61 731.27,-348.31 734.38,-349.04 737.17,-349.8 739.62,-350.59 741.73,-351.41 743.51,-352.25 744.95,-353.11 746.05,-353.99 746.82,-354.89 747.26,-355.8 747.37,-356.72 747.18,-357.65 746.68,-358.59 745.88,-359.53 744.8,-360.47 743.45,-361.41 741.84,-362.35 739.99,-363.28 737.9,-364.2 735.59,-365.11 733.08,-366.01 730.38,-366.89 727.5,-367.75 724.45,-368.59 721.26,-369.41 717.93,-370.2 714.48,-370.96 710.91,-371.69 707.25,-372.39 703.5,-373.06 699.66,-373.69 695.76,-374.29 691.8,-374.84 687.79,-375.35 683.73,-375.82 679.64,-376.25 675.51,-376.64 671.36,-376.97 667.18,-377.26 662.99,-377.51 658.78,-377.7 654.57,-377.85 650.34,-377.95 646.11,-378 641.89,-378 637.66,-377.95 633.43,-377.85 629.22,-377.7 625.01,-377.51 620.82,-377.26 616.64,-376.97 612.49,-376.64 608.36,-376.25 604.27,-375.82 600.21,-375.35 596.2,-374.84 592.24,-374.29 588.34,-373.69 584.5,-373.06 580.75,-372.39 577.09,-371.69 573.52,-370.96 570.07,-370.2 566.74,-369.41 563.55,-368.59 560.5,-367.75 557.62,-366.89 554.92,-366.01 552.41,-365.11 550.1,-364.2 548.01,-363.28 546.16,-362.35 544.55,-361.41 543.2,-360.47 542.12,-359.53 541.32,-358.59 540.82,-357.65 540.63,-356.72 540.74,-355.8 541.18,-354.89 541.95,-353.99 543.05,-353.11 544.49,-352.25 546.27,-351.41 548.38,-350.59 550.83,-349.8 553.62,-349.04 556.73,-348.31 560.17,-347.61 563.93,-346.94 567.98,-346.31 572.33,-345.71 576.96,-345.16 581.85,-344.65 586.99,-344.18 592.35,-343.75 597.92,-343.36 603.68,-343.03 609.6,-342.74 615.66,-342.49 621.83,-342.3 628.1,-342.15 634.43,-342.05 640.81,-342 647.19,-342 653.57,-342.05"/>
<text text-anchor="middle" x="644" y="-357.5" font-family="Helvetica,sans-Serif" font-size="10.00">Android SpeechRecognizer API</text>
</g>
<!-- other_service&#45;&gt;Android SpeechRecognizer -->
<g id="edge7" class="edge">
<title>other_service&#45;&gt;Android SpeechRecognizer</title>
<path fill="none" stroke="black" d="M523.84,-414.99C548.02,-404.13 579.32,-390.06 603.92,-379.01"/>
<polygon fill="black" stroke="black" points="605.08,-380.79 609.7,-376.41 603.36,-376.96 605.08,-380.79"/>
</g>
<!-- Kõnele service&#45;&gt;Android SpeechRecognizer -->
<g id="edge4" class="edge">
<title>Kõnele service&#45;&gt;Android SpeechRecognizer</title>
<path fill="none" stroke="black" d="M614.44,-414.81C619.61,-405.39 626.09,-393.61 631.66,-383.47"/>
<polygon fill="black" stroke="black" points="633.6,-384.3 634.65,-378.03 629.92,-382.28 633.6,-384.3"/>
</g>
<!-- Kõnele fast&#45;&gt;Android SpeechRecognizer -->
<g id="edge5" class="edge">
<title>Kõnele fast&#45;&gt;Android SpeechRecognizer</title>
<path fill="none" stroke="black" d="M713.73,-414.81C700.66,-404.72 684.06,-391.92 670.34,-381.33"/>
<polygon fill="black" stroke="black" points="671.47,-379.54 665.43,-377.54 668.9,-382.87 671.47,-379.54"/>
</g>
<!-- Kõnele grammar&#45;&gt;Android SpeechRecognizer -->
<g id="edge6" class="edge">
<title>Kõnele grammar&#45;&gt;Android SpeechRecognizer</title>
<path fill="none" stroke="black" d="M840.62,-414.93C831.74,-412.22 822.62,-409.5 814,-407 776.67,-396.19 734.51,-384.78 701.51,-376.02"/>
<polygon fill="black" stroke="black" points="701.8,-373.93 695.46,-374.42 700.72,-377.99 701.8,-373.93"/>
</g>
<!-- Android SpeechRecognizer&#45;&gt;Kõnele View -->
<g id="edge10" class="edge">
<title>Android SpeechRecognizer&#45;&gt;Kõnele View</title>
<path fill="none" stroke="black" d="M587.91,-344.03C547.07,-333.13 491.48,-318.29 447.77,-306.62"/>
<polygon fill="black" stroke="black" points="448.29,-304.59 441.95,-305.07 447.21,-308.65 448.29,-304.59"/>
</g>
<!-- other_ime -->
<g id="node15" class="node">
<title>other_ime</title>
<polygon fill="none" stroke="black" points="650,-215 530,-215 530,-179 650,-179 650,-215"/>
<text text-anchor="middle" x="590" y="-194.5" font-family="Helvetica,sans-Serif" font-size="10.00">some other keyboard</text>
</g>
<!-- Android SpeechRecognizer&#45;&gt;other_ime -->
<g id="edge14" class="edge">
<title>Android SpeechRecognizer&#45;&gt;other_ime</title>
<path fill="none" stroke="black" stroke-dasharray="5,2" d="M637.91,-342.01C634.14,-331.39 629.22,-317.42 625,-305 615.18,-276.07 604.3,-242.58 597.32,-220.88"/>
<polygon fill="black" stroke="black" points="599.3,-220.16 595.46,-215.09 595.3,-221.44 599.3,-220.16"/>
<text text-anchor="middle" x="644.5" y="-284.8" font-family="Verdana" font-size="9.00">(maybe)</text>
</g>
<!-- Google Translate -->
<g id="node17" class="node">
<title>Google Translate</title>
<polygon fill="none" stroke="black" points="662,-52 564,-52 564,-16 662,-16 662,-52"/>
<text text-anchor="middle" x="613" y="-31.5" font-family="Helvetica,sans-Serif" font-size="10.00">Google Translate</text>
</g>
<!-- Android SpeechRecognizer&#45;&gt;Google Translate -->
<g id="edge16" class="edge">
<title>Android SpeechRecognizer&#45;&gt;Google Translate</title>
<path fill="none" stroke="black" d="M657.44,-341.99C666.94,-328.24 678,-307.95 678,-288 678,-288 678,-288 678,-123 678,-96.44 658.6,-72.63 641,-56.5"/>
<polygon fill="black" stroke="black" points="641.98,-54.57 636.1,-52.16 639.2,-57.71 641.98,-54.57"/>
</g>
<!-- Arvutaja -->
<g id="node18" class="node">
<title>Arvutaja</title>
<polygon fill="none" stroke="black" points="738,-52 680,-52 680,-16 738,-16 738,-52"/>
<text text-anchor="middle" x="709" y="-31.5" font-family="Helvetica,sans-Serif" font-size="10.00">Arvutaja</text>
</g>
<!-- Android SpeechRecognizer&#45;&gt;Arvutaja -->
<g id="edge13" class="edge">
<title>Android SpeechRecognizer&#45;&gt;Arvutaja</title>
<path fill="none" stroke="black" d="M676.63,-342.56C695.68,-330.42 716,-311.88 716,-288 716,-288 716,-288 716,-123 716,-101.02 713.8,-76.06 711.87,-58.35"/>
<polygon fill="black" stroke="black" points="713.93,-57.89 711.18,-52.17 709.76,-58.36 713.93,-57.89"/>
</g>
<!-- Android RecognizerIntent -->
<g id="node9" class="node">
<title>Android RecognizerIntent</title>
<polygon fill="#99cc33" stroke="black" points="229.17,-106.05 235.24,-106.15 241.25,-106.3 247.17,-106.49 252.98,-106.74 258.66,-107.03 264.17,-107.36 269.51,-107.75 274.66,-108.18 279.58,-108.65 284.27,-109.16 288.7,-109.71 292.87,-110.31 296.76,-110.94 300.36,-111.61 303.65,-112.31 306.64,-113.04 309.31,-113.8 311.66,-114.59 313.69,-115.41 315.39,-116.25 316.77,-117.11 317.83,-117.99 318.56,-118.89 318.98,-119.8 319.1,-120.72 318.91,-121.65 318.43,-122.59 317.67,-123.53 316.63,-124.47 315.34,-125.41 313.8,-126.35 312.02,-127.28 310.02,-128.2 307.8,-129.11 305.39,-130.01 302.8,-130.89 300.04,-131.75 297.12,-132.59 294.06,-133.41 290.87,-134.2 287.56,-134.96 284.14,-135.69 280.63,-136.39 277.03,-137.06 273.36,-137.69 269.62,-138.29 265.83,-138.84 261.98,-139.35 258.09,-139.82 254.16,-140.25 250.21,-140.64 246.23,-140.97 242.22,-141.26 238.2,-141.51 234.17,-141.7 230.13,-141.85 226.08,-141.95 222.03,-142 217.97,-142 213.92,-141.95 209.87,-141.85 205.83,-141.7 201.8,-141.51 197.78,-141.26 193.77,-140.97 189.79,-140.64 185.84,-140.25 181.91,-139.82 178.02,-139.35 174.17,-138.84 170.38,-138.29 166.64,-137.69 162.97,-137.06 159.37,-136.39 155.86,-135.69 152.44,-134.96 149.13,-134.2 145.94,-133.41 142.88,-132.59 139.96,-131.75 137.2,-130.89 134.61,-130.01 132.2,-129.11 129.98,-128.2 127.98,-127.28 126.2,-126.35 124.66,-125.41 123.37,-124.47 122.33,-123.53 121.57,-122.59 121.09,-121.65 120.9,-120.72 121.02,-119.8 121.44,-118.89 122.17,-117.99 123.23,-117.11 124.61,-116.25 126.31,-115.41 128.34,-114.59 130.69,-113.8 133.36,-113.04 136.35,-112.31 139.64,-111.61 143.24,-110.94 147.13,-110.31 151.3,-109.71 155.73,-109.16 160.42,-108.65 165.34,-108.18 170.49,-107.75 175.83,-107.36 181.34,-107.03 187.02,-106.74 192.83,-106.49 198.75,-106.3 204.76,-106.15 210.83,-106.05 216.94,-106 223.06,-106 229.17,-106.05"/>
<text text-anchor="middle" x="220" y="-121.5" font-family="Helvetica,sans-Serif" font-size="10.00">Android RecognizerIntent API</text>
</g>
<!-- Google Keep -->
<g id="node16" class="node">
<title>Google Keep</title>
<polygon fill="none" stroke="black" points="546,-52 468,-52 468,-16 546,-16 546,-52"/>
<text text-anchor="middle" x="507" y="-31.5" font-family="Helvetica,sans-Serif" font-size="10.00">Google Keep</text>
</g>
<!-- Android RecognizerIntent&#45;&gt;Google Keep -->
<g id="edge15" class="edge">
<title>Android RecognizerIntent&#45;&gt;Google Keep</title>
<path fill="none" stroke="black" d="M269.99,-107.67C324.12,-91.08 409.67,-64.84 461.84,-48.85"/>
<polygon fill="black" stroke="black" points="462.59,-50.81 467.71,-47.05 461.36,-46.8 462.59,-50.81"/>
</g>
<!-- IME -->
<g id="node10" class="node">
<title>IME</title>
<polygon fill="#99cc33" stroke="black" points="514.61,-106.05 519.65,-106.15 524.64,-106.3 529.55,-106.49 534.37,-106.74 539.08,-107.03 543.66,-107.36 548.09,-107.75 552.36,-108.18 556.45,-108.65 560.34,-109.16 564.02,-109.71 567.48,-110.31 570.71,-110.94 573.69,-111.61 576.43,-112.31 578.91,-113.04 581.13,-113.8 583.08,-114.59 584.76,-115.41 586.17,-116.25 587.31,-117.11 588.19,-117.99 588.8,-118.89 589.15,-119.8 589.25,-120.72 589.09,-121.65 588.69,-122.59 588.06,-123.53 587.2,-124.47 586.13,-125.41 584.85,-126.35 583.37,-127.28 581.71,-128.2 579.87,-129.11 577.87,-130.01 575.72,-130.89 573.43,-131.75 571.01,-132.59 568.47,-133.41 565.82,-134.2 563.07,-134.96 560.24,-135.69 557.32,-136.39 554.34,-137.06 551.29,-137.69 548.18,-138.29 545.03,-138.84 541.84,-139.35 538.61,-139.82 535.35,-140.25 532.07,-140.64 528.77,-140.97 525.44,-141.26 522.11,-141.51 518.76,-141.7 515.41,-141.85 512.05,-141.95 508.68,-142 505.32,-142 501.95,-141.95 498.59,-141.85 495.24,-141.7 491.89,-141.51 488.56,-141.26 485.23,-140.97 481.93,-140.64 478.65,-140.25 475.39,-139.82 472.16,-139.35 468.97,-138.84 465.82,-138.29 462.71,-137.69 459.66,-137.06 456.68,-136.39 453.76,-135.69 450.93,-134.96 448.18,-134.2 445.53,-133.41 442.99,-132.59 440.57,-131.75 438.28,-130.89 436.13,-130.01 434.13,-129.11 432.29,-128.2 430.63,-127.28 429.15,-126.35 427.87,-125.41 426.8,-124.47 425.94,-123.53 425.31,-122.59 424.91,-121.65 424.75,-120.72 424.85,-119.8 425.2,-118.89 425.81,-117.99 426.69,-117.11 427.83,-116.25 429.24,-115.41 430.92,-114.59 432.87,-113.8 435.09,-113.04 437.57,-112.31 440.31,-111.61 443.29,-110.94 446.52,-110.31 449.98,-109.71 453.66,-109.16 457.55,-108.65 461.64,-108.18 465.91,-107.75 470.34,-107.36 474.92,-107.03 479.63,-106.74 484.45,-106.49 489.36,-106.3 494.35,-106.15 499.39,-106.05 504.46,-106 509.54,-106 514.61,-106.05"/>
<text text-anchor="middle" x="507" y="-121.5" font-family="Helvetica,sans-Serif" font-size="10.00">Input Method Editor API</text>
</g>
<!-- IME&#45;&gt;Google Keep -->
<g id="edge20" class="edge">
<title>IME&#45;&gt;Google Keep</title>
<path fill="none" stroke="black" d="M507,-105.61C507,-92.03 507,-73.02 507,-58.14"/>
<polygon fill="black" stroke="black" points="509.1,-58.05 507,-52.05 504.9,-58.05 509.1,-58.05"/>
</g>
<!-- IME&#45;&gt;Google Translate -->
<g id="edge21" class="edge">
<title>IME&#45;&gt;Google Translate</title>
<path fill="none" stroke="black" d="M527.44,-106.03C544.49,-91.88 568.87,-71.64 587.25,-56.38"/>
<polygon fill="black" stroke="black" points="588.99,-57.66 592.26,-52.22 586.31,-54.43 588.99,-57.66"/>
</g>
<!-- other_activity -->
<g id="node11" class="node">
<title>other_activity</title>
<polygon fill="none" stroke="black" points="130,-215 16,-215 16,-179 130,-179 130,-215"/>
<text text-anchor="middle" x="73" y="-200" font-family="Helvetica,sans-Serif" font-size="10.00">some other activity:</text>
<text text-anchor="middle" x="73" y="-189" font-family="Helvetica,sans-Serif" font-size="10.00">Google, ...</text>
</g>
<!-- other_activity&#45;&gt;Android RecognizerIntent -->
<g id="edge9" class="edge">
<title>other_activity&#45;&gt;Android RecognizerIntent</title>
<path fill="none" stroke="black" d="M108.21,-178.99C130.45,-168.25 159.17,-154.38 181.94,-143.38"/>
<polygon fill="black" stroke="black" points="183.1,-145.15 187.59,-140.65 181.27,-141.37 183.1,-145.15"/>
</g>
<!-- panel&#45;&gt;Android RecognizerIntent -->
<g id="edge8" class="edge">
<title>panel&#45;&gt;Android RecognizerIntent</title>
<path fill="none" stroke="black" d="M220,-178.81C220,-169.57 220,-158.04 220,-148.03"/>
<polygon fill="black" stroke="black" points="222.1,-148.03 220,-142.03 217.9,-148.03 222.1,-148.03"/>
</g>
<!-- Kõnele IME&#45;&gt;IME -->
<g id="edge18" class="edge">
<title>Kõnele IME&#45;&gt;IME</title>
<path fill="none" stroke="black" d="M408.9,-178.99C428.38,-168.27 453.55,-154.42 473.51,-143.43"/>
<polygon fill="black" stroke="black" points="474.75,-145.15 478.99,-140.41 472.72,-141.47 474.75,-145.15"/>
</g>
<!-- Gboard -->
<g id="node14" class="node">
<title>Gboard</title>
<polygon fill="none" stroke="black" points="512,-215 458,-215 458,-179 512,-179 512,-215"/>
<text text-anchor="middle" x="485" y="-194.5" font-family="Helvetica,sans-Serif" font-size="10.00">Gboard</text>
</g>
<!-- Gboard&#45;&gt;IME -->
<g id="edge17" class="edge">
<title>Gboard&#45;&gt;IME</title>
<path fill="none" stroke="black" d="M490.33,-178.81C493.19,-169.57 496.76,-158.04 499.86,-148.03"/>
<polygon fill="black" stroke="black" points="501.95,-148.38 501.72,-142.03 497.94,-147.14 501.95,-148.38"/>
</g>
<!-- other_ime&#45;&gt;IME -->
<g id="edge19" class="edge">
<title>other_ime&#45;&gt;IME</title>
<path fill="none" stroke="black" d="M569.91,-178.81C558.13,-168.74 543.19,-155.96 530.83,-145.38"/>
<polygon fill="black" stroke="black" points="531.98,-143.6 526.05,-141.3 529.25,-146.79 531.98,-143.6"/>
</g>
</g>
</svg>
