<?xml version="1.0" encoding="UTF-8" standalone="no"?>
<!DOCTYPE svg PUBLIC "-//W3C//DTD SVG 1.1//EN"
 "http://www.w3.org/Graphics/SVG/1.1/DTD/svg11.dtd">
<!-- Generated by graphviz version 2.36.0 (20140111.2315)
 -->
<!-- Title: G Pages: 1 -->
<svg width="904pt" height="598pt"
 viewBox="0.00 0.00 904.00 598.00" xmlns="http://www.w3.org/2000/svg" xmlns:xlink="http://www.w3.org/1999/xlink">
<g id="graph0" class="graph" transform="scale(1 1) rotate(0) translate(4 594)">
<title>G</title>
<polygon fill="white" stroke="none" points="-4,4 -4,-594 900,-594 900,4 -4,4"/>
<g id="clust1" class="cluster"><title>cluster_0</title>
<polygon fill="lightblue" stroke="lightblue" points="582,-511 582,-582 856,-582 856,-511 582,-511"/>
<text text-anchor="middle" x="719" y="-570" font-family="Helvetica,sans-Serif" font-size="10.00">Cloud speech servers</text>
</g>
<g id="clust2" class="cluster"><title>cluster_1</title>
<polygon fill="none" stroke="black" stroke-dasharray="1,5" points="390,-412 390,-483 860,-483 860,-412 390,-412"/>
<text text-anchor="middle" x="625" y="-471" font-family="Helvetica,sans-Serif" font-size="10.00">Android speech services</text>
</g>
<g id="clust3" class="cluster"><title>cluster_2</title>
<polygon fill="none" stroke="black" stroke-dasharray="1,5" points="8,-173 8,-244 277,-244 277,-173 8,-173"/>
<text text-anchor="middle" x="142.5" y="-232" font-family="Helvetica,sans-Serif" font-size="10.00">Android RecognizerIntent activities</text>
</g>
<g id="clust4" class="cluster"><title>cluster_3</title>
<polygon fill="none" stroke="black" stroke-dasharray="1,5" points="285,-173 285,-244 661,-244 661,-173 285,-173"/>
<text text-anchor="middle" x="473" y="-232" font-family="Helvetica,sans-Serif" font-size="10.00">Android keyboard apps</text>
</g>
<g id="clust5" class="cluster"><title>cluster_4</title>
<polygon fill="lightgrey" stroke="lightgrey" points="471,-8 471,-79 742,-79 742,-8 471,-8"/>
<text text-anchor="middle" x="606.5" y="-67" font-family="Helvetica,sans-Serif" font-size="10.00">Android apps</text>
</g>
<!-- Kõnele View -->
<g id="node1" class="node"><title>Kõnele View</title>
<polygon fill="yellow" stroke="black" points="416.5,-308 293.5,-308 293.5,-304 289.5,-304 289.5,-300 293.5,-300 293.5,-280 289.5,-280 289.5,-276 293.5,-276 293.5,-272 416.5,-272 416.5,-308"/>
<polyline fill="none" stroke="black" points="293.5,-304 297.5,-304 297.5,-300 293.5,-300 "/>
<polyline fill="none" stroke="black" points="293.5,-280 297.5,-280 297.5,-276 293.5,-276 "/>
<text text-anchor="middle" x="355" y="-293" font-family="Helvetica,sans-Serif" font-size="10.00">Kõnele mic+swipe editor</text>
<text text-anchor="middle" x="355" y="-282" font-family="Helvetica,sans-Serif" font-size="10.00">(view component)</text>
</g>
<!-- panel -->
<g id="node11" class="node"><title>panel</title>
<polygon fill="yellow" stroke="black" points="268.25,-217 137.75,-217 137.75,-181 268.25,-181 268.25,-217"/>
<text text-anchor="middle" x="203" y="-196.5" font-family="Helvetica,sans-Serif" font-size="10.00">Kõnele voice search panel</text>
</g>
<!-- Kõnele View&#45;&gt;panel -->
<g id="edge10" class="edge"><title>Kõnele View&#45;&gt;panel</title>
<path fill="none" stroke="black" d="M325.693,-271.84C300.459,-257.065 264.014,-235.725 237.402,-220.143"/>
<polygon fill="black" stroke="black" points="238.456,-218.327 232.217,-217.107 236.334,-221.951 238.456,-218.327"/>
</g>
<!-- Kõnele IME -->
<g id="node12" class="node"><title>Kõnele IME</title>
<polygon fill="yellow" stroke="black" points="416.5,-217 293.5,-217 293.5,-181 416.5,-181 416.5,-217"/>
<text text-anchor="middle" x="355" y="-196.5" font-family="Helvetica,sans-Serif" font-size="10.00">Kõnele speech keyboard</text>
</g>
<!-- Kõnele View&#45;&gt;Kõnele IME -->
<g id="edge9" class="edge"><title>Kõnele View&#45;&gt;Kõnele IME</title>
<path fill="none" stroke="black" d="M355,-271.84C355,-258.05 355,-238.541 355,-223.333"/>
<polygon fill="black" stroke="black" points="357.1,-223.107 355,-217.107 352.9,-223.107 357.1,-223.107"/>
</g>
<!-- kaldi -->
<g id="node2" class="node"><title>kaldi</title>
<polygon fill="none" stroke="black" points="703.25,-555 590.75,-555 590.75,-519 703.25,-519 703.25,-555"/>
<text text-anchor="middle" x="647" y="-534.5" font-family="Helvetica,sans-Serif" font-size="10.00">kaldi&#45;gstreamer&#45;server</text>
</g>
<!-- Kõnele fast -->
<g id="node5" class="node"><title>Kõnele fast</title>
<polygon fill="yellow" stroke="black" points="704,-456 582,-456 582,-420 704,-420 704,-456"/>
<text text-anchor="middle" x="643" y="-435.5" font-family="Helvetica,sans-Serif" font-size="10.00">Kõnele (fast recognition)</text>
</g>
<!-- kaldi&#45;&gt;Kõnele fast -->
<g id="edge1" class="edge"><title>kaldi&#45;&gt;Kõnele fast</title>
<path fill="none" stroke="black" d="M646.285,-518.658C645.636,-502.934 644.675,-479.631 643.96,-462.287"/>
<polygon fill="black" stroke="black" points="646.054,-462.1 643.709,-456.192 641.858,-462.273 646.054,-462.1"/>
<text text-anchor="middle" x="671.5" y="-493.8" font-family="monospace" font-size="9.00">WebSockets</text>
</g>
<!-- pocketsphinx -->
<g id="node3" class="node"><title>pocketsphinx</title>
<polygon fill="none" stroke="black" points="848,-555 722,-555 722,-519 848,-519 848,-555"/>
<text text-anchor="middle" x="785" y="-534.5" font-family="Helvetica,sans-Serif" font-size="10.00">ruby&#45;pocketsphinx&#45;server</text>
</g>
<!-- Kõnele grammar -->
<g id="node6" class="node"><title>Kõnele grammar</title>
<polygon fill="yellow" stroke="black" points="851.25,-456 722.75,-456 722.75,-420 851.25,-420 851.25,-456"/>
<text text-anchor="middle" x="787" y="-435.5" font-family="Helvetica,sans-Serif" font-size="10.00">Kõnele (grammar support)</text>
</g>
<!-- pocketsphinx&#45;&gt;Kõnele grammar -->
<g id="edge2" class="edge"><title>pocketsphinx&#45;&gt;Kõnele grammar</title>
<path fill="none" stroke="black" d="M785.358,-518.658C785.682,-502.934 786.162,-479.631 786.52,-462.287"/>
<polygon fill="black" stroke="black" points="788.621,-462.234 786.646,-456.192 784.422,-462.147 788.621,-462.234"/>
<text text-anchor="middle" x="840.5" y="-493.8" font-family="monospace" font-size="9.00">net&#45;speech&#45;api (HTTP)</text>
</g>
<!-- other_service -->
<g id="node4" class="node"><title>other_service</title>
<polygon fill="none" stroke="black" points="564,-456 398,-456 398,-420 564,-420 564,-456"/>
<text text-anchor="middle" x="481" y="-441" font-family="Helvetica,sans-Serif" font-size="10.00">some other service:</text>
<text text-anchor="middle" x="481" y="-430" font-family="Helvetica,sans-Serif" font-size="10.00">Google, Inimesed (future work), ...</text>
</g>
<!-- Android SpeechRecognizer -->
<g id="node7" class="node"><title>Android SpeechRecognizer</title>
<polygon fill="lightgreen" stroke="black" points="651.999,-346.049 657.958,-346.148 663.854,-346.295 669.665,-346.491 675.367,-346.735 680.937,-347.027 686.352,-347.364 691.593,-347.748 696.638,-348.176 701.47,-348.647 706.07,-349.161 710.423,-349.715 714.515,-350.308 718.332,-350.939 721.862,-351.605 725.097,-352.306 728.029,-353.039 730.65,-353.801 732.957,-354.592 734.946,-355.408 736.617,-356.248 737.969,-357.109 739.005,-357.989 739.727,-358.886 740.14,-359.797 740.252,-360.719 740.068,-361.65 739.598,-362.587 738.85,-363.529 737.835,-364.471 736.565,-365.413 735.051,-366.35 733.305,-367.281 731.34,-368.203 729.169,-369.114 726.805,-370.011 724.261,-370.891 721.552,-371.752 718.688,-372.592 715.684,-373.408 712.552,-374.199 709.304,-374.961 705.951,-375.694 702.503,-376.395 698.973,-377.061 695.368,-377.692 691.698,-378.285 687.972,-378.839 684.197,-379.353 680.38,-379.824 676.527,-380.252 672.645,-380.636 668.737,-380.973 664.809,-381.265 660.864,-381.509 656.907,-381.705 652.94,-381.852 648.967,-381.951 644.989,-382 641.011,-382 637.033,-381.951 633.06,-381.852 629.093,-381.705 625.136,-381.509 621.191,-381.265 617.263,-380.973 613.355,-380.636 609.473,-380.252 605.62,-379.824 601.803,-379.353 598.028,-378.839 594.302,-378.285 590.632,-377.692 587.027,-377.061 583.497,-376.395 580.049,-375.694 576.696,-374.961 573.448,-374.199 570.316,-373.408 567.312,-372.592 564.448,-371.752 561.739,-370.891 559.195,-370.011 556.831,-369.114 554.66,-368.203 552.695,-367.281 550.949,-366.35 549.435,-365.413 548.165,-364.471 547.15,-363.529 546.402,-362.587 545.932,-361.65 545.748,-360.719 545.86,-359.797 546.273,-358.886 546.995,-357.989 548.031,-357.109 549.383,-356.248 551.054,-355.408 553.043,-354.592 555.35,-353.801 557.971,-353.039 560.903,-352.306 564.138,-351.605 567.668,-350.939 571.485,-350.308 575.577,-349.715 579.93,-349.161 584.53,-348.647 589.362,-348.176 594.407,-347.748 599.648,-347.364 605.063,-347.027 610.633,-346.735 616.335,-346.491 622.146,-346.295 628.042,-346.148 634.001,-346.049 639.996,-346 646.004,-346 651.999,-346.049"/>
<text text-anchor="middle" x="643" y="-361.5" font-family="Helvetica,sans-Serif" font-size="10.00">Android SpeechRecognizer API</text>
</g>
<!-- other_service&#45;&gt;Android SpeechRecognizer -->
<g id="edge5" class="edge"><title>other_service&#45;&gt;Android SpeechRecognizer</title>
<path fill="none" stroke="black" d="M519.392,-419.937C544.618,-408.725 577.552,-394.088 603.081,-382.742"/>
<polygon fill="black" stroke="black" points="604.11,-384.583 608.74,-380.227 602.404,-380.745 604.11,-384.583"/>
</g>
<!-- Kõnele fast&#45;&gt;Android SpeechRecognizer -->
<g id="edge3" class="edge"><title>Kõnele fast&#45;&gt;Android SpeechRecognizer</title>
<path fill="none" stroke="black" d="M643,-419.937C643,-410.57 643,-398.812 643,-388.58"/>
<polygon fill="black" stroke="black" points="645.1,-388.441 643,-382.441 640.9,-388.441 645.1,-388.441"/>
</g>
<!-- Kõnele grammar&#45;&gt;Android SpeechRecognizer -->
<g id="edge4" class="edge"><title>Kõnele grammar&#45;&gt;Android SpeechRecognizer</title>
<path fill="none" stroke="black" d="M752.874,-419.937C730.946,-408.973 702.466,-394.733 679.996,-383.498"/>
<polygon fill="black" stroke="black" points="680.726,-381.515 674.421,-380.71 678.848,-385.272 680.726,-381.515"/>
</g>
<!-- Android SpeechRecognizer&#45;&gt;Kõnele View -->
<g id="edge8" class="edge"><title>Android SpeechRecognizer&#45;&gt;Kõnele View</title>
<path fill="none" stroke="black" d="M585.065,-348.516C538.107,-336.777 471.862,-320.215 422.508,-307.877"/>
<polygon fill="black" stroke="black" points="422.905,-305.812 416.575,-306.394 421.887,-309.886 422.905,-305.812"/>
</g>
<!-- other_ime -->
<g id="node14" class="node"><title>other_ime</title>
<polygon fill="none" stroke="black" points="653,-217 545,-217 545,-181 653,-181 653,-217"/>
<text text-anchor="middle" x="599" y="-196.5" font-family="Helvetica,sans-Serif" font-size="10.00">some other keyboard</text>
</g>
<!-- Android SpeechRecognizer&#45;&gt;other_ime -->
<g id="edge12" class="edge"><title>Android SpeechRecognizer&#45;&gt;other_ime</title>
<path fill="none" stroke="black" stroke-dasharray="5,2" d="M638.254,-345.665C635.294,-334.84 631.413,-320.611 628,-308 620.073,-278.708 611.015,-244.924 605.162,-223.053"/>
<polygon fill="black" stroke="black" points="607.179,-222.468 603.6,-217.214 603.122,-223.553 607.179,-222.468"/>
<text text-anchor="middle" x="647.5" y="-287.8" font-family="Verdana" font-size="9.00">(maybe)</text>
</g>
<!-- Google Translate -->
<g id="node16" class="node"><title>Google Translate</title>
<polygon fill="none" stroke="black" points="661.25,-52 570.75,-52 570.75,-16 661.25,-16 661.25,-52"/>
<text text-anchor="middle" x="616" y="-31.5" font-family="Helvetica,sans-Serif" font-size="10.00">Google Translate</text>
</g>
<!-- Android SpeechRecognizer&#45;&gt;Google Translate -->
<g id="edge14" class="edge"><title>Android SpeechRecognizer&#45;&gt;Google Translate</title>
<path fill="none" stroke="black" d="M658.019,-345.974C668.64,-332.152 681,-311.636 681,-291 681,-291 681,-291 681,-124 681,-97.0666 661.347,-72.8434 643.654,-56.4932"/>
<polygon fill="black" stroke="black" points="644.607,-54.5279 638.734,-52.0947 641.807,-57.6591 644.607,-54.5279"/>
</g>
<!-- Arvutaja -->
<g id="node17" class="node"><title>Arvutaja</title>
<polygon fill="none" stroke="black" points="734,-52 680,-52 680,-16 734,-16 734,-52"/>
<text text-anchor="middle" x="707" y="-31.5" font-family="Helvetica,sans-Serif" font-size="10.00">Arvutaja</text>
</g>
<!-- Android SpeechRecognizer&#45;&gt;Arvutaja -->
<g id="edge11" class="edge"><title>Android SpeechRecognizer&#45;&gt;Arvutaja</title>
<path fill="none" stroke="black" d="M677.442,-346.665C697.551,-334.494 719,-315.718 719,-291 719,-291 719,-291 719,-124 719,-101.644 715.235,-76.4095 711.923,-58.5352"/>
<polygon fill="black" stroke="black" points="713.921,-57.8007 710.731,-52.3019 709.795,-58.5896 713.921,-57.8007"/>
</g>
<!-- Android RecognizerIntent -->
<g id="node8" class="node"><title>Android RecognizerIntent</title>
<polygon fill="lightgreen" stroke="black" points="211.448,-107.049 217.04,-107.148 222.576,-107.295 228.03,-107.491 233.382,-107.735 238.611,-108.027 243.694,-108.364 248.613,-108.748 253.349,-109.176 257.885,-109.647 262.203,-110.161 266.289,-110.715 270.13,-111.308 273.712,-111.939 277.027,-112.605 280.063,-113.306 282.815,-114.039 285.276,-114.801 287.441,-115.592 289.309,-116.408 290.877,-117.248 292.146,-118.109 293.118,-118.989 293.796,-119.886 294.184,-120.797 294.289,-121.719 294.116,-122.65 293.674,-123.587 292.973,-124.529 292.02,-125.471 290.828,-126.413 289.406,-127.35 287.767,-128.281 285.923,-129.203 283.885,-130.114 281.666,-131.011 279.279,-131.891 276.735,-132.752 274.047,-133.592 271.228,-134.408 268.288,-135.199 265.238,-135.961 262.091,-136.694 258.855,-137.395 255.54,-138.061 252.157,-138.692 248.712,-139.285 245.215,-139.839 241.671,-140.353 238.088,-140.824 234.472,-141.252 230.827,-141.636 227.159,-141.973 223.472,-142.265 219.769,-142.509 216.054,-142.705 212.331,-142.852 208.601,-142.951 204.867,-143 201.133,-143 197.399,-142.951 193.669,-142.852 189.946,-142.705 186.231,-142.509 182.528,-142.265 178.841,-141.973 175.173,-141.636 171.528,-141.252 167.912,-140.824 164.329,-140.353 160.785,-139.839 157.288,-139.285 153.843,-138.692 150.46,-138.061 147.145,-137.395 143.909,-136.694 140.762,-135.961 137.712,-135.199 134.772,-134.408 131.953,-133.592 129.265,-132.752 126.721,-131.891 124.334,-131.011 122.115,-130.114 120.077,-129.203 118.233,-128.281 116.594,-127.35 115.172,-126.413 113.98,-125.471 113.027,-124.529 112.326,-123.587 111.884,-122.65 111.711,-121.719 111.816,-120.797 112.204,-119.886 112.882,-118.989 113.854,-118.109 115.123,-117.248 116.691,-116.408 118.559,-115.592 120.724,-114.801 123.185,-114.039 125.937,-113.306 128.973,-112.605 132.288,-111.939 135.87,-111.308 139.711,-110.715 143.797,-110.161 148.115,-109.647 152.651,-109.176 157.387,-108.748 162.306,-108.364 167.389,-108.027 172.618,-107.735 177.97,-107.491 183.424,-107.295 188.96,-107.148 194.552,-107.049 200.18,-107 205.82,-107 211.448,-107.049"/>
<text text-anchor="middle" x="203" y="-122.5" font-family="Helvetica,sans-Serif" font-size="10.00">Android RecognizerIntent API</text>
</g>
<!-- Google Keep -->
<g id="node15" class="node"><title>Google Keep</title>
<polygon fill="none" stroke="black" points="552.25,-52 479.75,-52 479.75,-16 552.25,-16 552.25,-52"/>
<text text-anchor="middle" x="516" y="-31.5" font-family="Helvetica,sans-Serif" font-size="10.00">Google Keep</text>
</g>
<!-- Android RecognizerIntent&#45;&gt;Google Keep -->
<g id="edge13" class="edge"><title>Android RecognizerIntent&#45;&gt;Google Keep</title>
<path fill="none" stroke="black" d="M254.686,-109.303C315.834,-91.9162 416.493,-63.2943 473.38,-47.1188"/>
<polygon fill="black" stroke="black" points="474.223,-49.0624 479.42,-45.4014 473.074,-45.0225 474.223,-49.0624"/>
</g>
<!-- IME -->
<g id="node9" class="node"><title>IME</title>
<polygon fill="lightgreen" stroke="black" points="523.053,-107.049 527.723,-107.148 532.345,-107.295 536.899,-107.491 541.368,-107.735 545.733,-108.027 549.977,-108.364 554.084,-108.748 558.039,-109.176 561.825,-109.647 565.431,-110.161 568.843,-110.715 572.049,-111.308 575.041,-111.939 577.808,-112.605 580.344,-113.306 582.641,-114.039 584.696,-114.801 586.504,-115.592 588.063,-116.408 589.372,-117.248 590.432,-118.109 591.243,-118.989 591.809,-119.886 592.133,-120.797 592.221,-121.719 592.077,-122.65 591.708,-123.587 591.122,-124.529 590.327,-125.471 589.331,-126.413 588.144,-127.35 586.776,-128.281 585.236,-129.203 583.534,-130.114 581.682,-131.011 579.688,-131.891 577.565,-132.752 575.32,-133.592 572.966,-134.408 570.511,-135.199 567.965,-135.961 565.337,-136.694 562.635,-137.395 559.868,-138.061 557.043,-138.692 554.167,-139.285 551.247,-139.839 548.288,-140.353 545.297,-140.824 542.277,-141.252 539.234,-141.636 536.171,-141.973 533.093,-142.265 530.001,-142.509 526.9,-142.705 523.791,-142.852 520.676,-142.951 517.559,-143 514.441,-143 511.324,-142.951 508.209,-142.852 505.1,-142.705 501.999,-142.509 498.907,-142.265 495.829,-141.973 492.766,-141.636 489.723,-141.252 486.703,-140.824 483.712,-140.353 480.753,-139.839 477.833,-139.285 474.957,-138.692 472.132,-138.061 469.365,-137.395 466.663,-136.694 464.035,-135.961 461.489,-135.199 459.034,-134.408 456.68,-133.592 454.435,-132.752 452.312,-131.891 450.318,-131.011 448.466,-130.114 446.764,-129.203 445.224,-128.281 443.856,-127.35 442.669,-126.413 441.673,-125.471 440.878,-124.529 440.292,-123.587 439.923,-122.65 439.779,-121.719 439.867,-120.797 440.191,-119.886 440.757,-118.989 441.568,-118.109 442.628,-117.248 443.937,-116.408 445.496,-115.592 447.304,-114.801 449.359,-114.039 451.656,-113.306 454.192,-112.605 456.959,-111.939 459.951,-111.308 463.157,-110.715 466.569,-110.161 470.175,-109.647 473.961,-109.176 477.916,-108.748 482.023,-108.364 486.267,-108.027 490.632,-107.735 495.101,-107.491 499.655,-107.295 504.277,-107.148 508.947,-107.049 513.646,-107 518.354,-107 523.053,-107.049"/>
<text text-anchor="middle" x="516" y="-122.5" font-family="Helvetica,sans-Serif" font-size="10.00">Input Method Editor API</text>
</g>
<!-- IME&#45;&gt;Google Keep -->
<g id="edge18" class="edge"><title>IME&#45;&gt;Google Keep</title>
<path fill="none" stroke="black" d="M516,-106.84C516,-93.05 516,-73.5413 516,-58.3328"/>
<polygon fill="black" stroke="black" points="518.1,-58.1074 516,-52.1074 513.9,-58.1074 518.1,-58.1074"/>
</g>
<!-- IME&#45;&gt;Google Translate -->
<g id="edge19" class="edge"><title>IME&#45;&gt;Google Translate</title>
<path fill="none" stroke="black" d="M534.809,-107.26C550.944,-92.8995 574.295,-72.1177 591.816,-56.5234"/>
<polygon fill="black" stroke="black" points="593.507,-57.8299 596.593,-52.2722 590.715,-54.6925 593.507,-57.8299"/>
</g>
<!-- other_activity -->
<g id="node10" class="node"><title>other_activity</title>
<polygon fill="none" stroke="black" points="119.25,-217 16.75,-217 16.75,-181 119.25,-181 119.25,-217"/>
<text text-anchor="middle" x="68" y="-202" font-family="Helvetica,sans-Serif" font-size="10.00">some other activity:</text>
<text text-anchor="middle" x="68" y="-191" font-family="Helvetica,sans-Serif" font-size="10.00">Google, ...</text>
</g>
<!-- other_activity&#45;&gt;Android RecognizerIntent -->
<g id="edge7" class="edge"><title>other_activity&#45;&gt;Android RecognizerIntent</title>
<path fill="none" stroke="black" d="M99.9931,-180.937C120.464,-170.019 147.025,-155.853 168.048,-144.641"/>
<polygon fill="black" stroke="black" points="169.237,-146.387 173.543,-141.71 167.261,-142.681 169.237,-146.387"/>
</g>
<!-- panel&#45;&gt;Android RecognizerIntent -->
<g id="edge6" class="edge"><title>panel&#45;&gt;Android RecognizerIntent</title>
<path fill="none" stroke="black" d="M203,-180.937C203,-171.57 203,-159.812 203,-149.58"/>
<polygon fill="black" stroke="black" points="205.1,-149.441 203,-143.441 200.9,-149.441 205.1,-149.441"/>
</g>
<!-- Kõnele IME&#45;&gt;IME -->
<g id="edge16" class="edge"><title>Kõnele IME&#45;&gt;IME</title>
<path fill="none" stroke="black" d="M393.155,-180.937C418.83,-169.455 452.54,-154.379 478.152,-142.926"/>
<polygon fill="black" stroke="black" points="479.197,-144.759 483.817,-140.393 477.482,-140.925 479.197,-144.759"/>
</g>
<!-- Google Keyboard -->
<g id="node13" class="node"><title>Google Keyboard</title>
<polygon fill="none" stroke="black" points="527,-217 435,-217 435,-181 527,-181 527,-217"/>
<text text-anchor="middle" x="481" y="-196.5" font-family="Helvetica,sans-Serif" font-size="10.00">Google Keyboard</text>
</g>
<!-- Google Keyboard&#45;&gt;IME -->
<g id="edge15" class="edge"><title>Google Keyboard&#45;&gt;IME</title>
<path fill="none" stroke="black" d="M489.295,-180.937C494.002,-171.253 499.952,-159.013 505.04,-148.546"/>
<polygon fill="black" stroke="black" points="507.03,-149.255 507.765,-142.941 503.253,-147.419 507.03,-149.255"/>
</g>
<!-- other_ime&#45;&gt;IME -->
<g id="edge17" class="edge"><title>other_ime&#45;&gt;IME</title>
<path fill="none" stroke="black" d="M579.33,-180.937C567.396,-170.584 552.094,-157.311 539.522,-146.405"/>
<polygon fill="black" stroke="black" points="540.582,-144.544 534.674,-142.199 537.83,-147.717 540.582,-144.544"/>
</g>
</g>
</svg>
