<?xml version="1.0" encoding="UTF-8" standalone="no"?>
<!DOCTYPE svg PUBLIC "-//W3C//DTD SVG 1.1//EN"
 "http://www.w3.org/Graphics/SVG/1.1/DTD/svg11.dtd">
<!-- Generated by graphviz version 2.36.0 (20140111.2315)
 -->
<!-- Title: G Pages: 1 -->
<svg width="692pt" height="585pt"
 viewBox="0.00 0.00 692.00 585.00" xmlns="http://www.w3.org/2000/svg" xmlns:xlink="http://www.w3.org/1999/xlink">
<g id="graph0" class="graph" transform="scale(1 1) rotate(0) translate(4 581)">
<title>G</title>
<polygon fill="white" stroke="none" points="-4,4 -4,-581 688,-581 688,4 -4,4"/>
<g id="clust1" class="cluster"><title>cluster_0</title>
<polygon fill="lightblue" stroke="lightblue" points="258,-494 258,-569 676,-569 676,-494 258,-494"/>
<text text-anchor="middle" x="467" y="-553.8" font-family="Times,serif" font-size="14.00">Cloud speech servers</text>
</g>
<g id="clust2" class="cluster"><title>cluster_1</title>
<polygon fill="none" stroke="black" points="66,-367 66,-460 663,-460 663,-367 66,-367"/>
<text text-anchor="middle" x="364.5" y="-444.8" font-family="Times,serif" font-size="14.00">Kõnele speech services</text>
</g>
<g id="clust3" class="cluster"><title>cluster_2</title>
<polygon fill="lightgreen" stroke="lightgreen" points="73,-198 73,-273 529,-273 529,-198 73,-198"/>
<text text-anchor="middle" x="301" y="-257.8" font-family="Times,serif" font-size="14.00">Android speech APIs</text>
</g>
<g id="clust4" class="cluster"><title>cluster_3</title>
<polygon fill="lightgreen" stroke="lightgreen" points="8,-103 8,-178 324,-178 324,-103 8,-103"/>
<text text-anchor="middle" x="166" y="-162.8" font-family="Times,serif" font-size="14.00">Android IMEs</text>
</g>
<g id="clust5" class="cluster"><title>cluster_4</title>
<polygon fill="lightgrey" stroke="lightgrey" points="88,-8 88,-83 482,-83 482,-8 88,-8"/>
<text text-anchor="middle" x="285" y="-67.8" font-family="Times,serif" font-size="14.00">Android apps</text>
</g>
<!-- Kõnele Dialog -->
<g id="node1" class="node"><title>Kõnele Dialog</title>
<ellipse fill="yellow" stroke="black" cx="184" cy="-319" rx="62.0922" ry="18"/>
<text text-anchor="middle" x="184" y="-315.3" font-family="Times,serif" font-size="14.00">Kõnele Dialog</text>
</g>
<!-- Android RecognizerIntent -->
<g id="node8" class="node"><title>Android RecognizerIntent</title>
<ellipse fill="white" stroke="black" cx="184" cy="-224" rx="102.536" ry="18"/>
<text text-anchor="middle" x="184" y="-220.3" font-family="Times,serif" font-size="14.00">Android RecognizerIntent</text>
</g>
<!-- Kõnele Dialog&#45;&gt;Android RecognizerIntent -->
<g id="edge7" class="edge"><title>Kõnele Dialog&#45;&gt;Android RecognizerIntent</title>
<path fill="none" stroke="black" d="M184,-300.942C184,-287.394 184,-268.18 184,-252.469"/>
<polygon fill="black" stroke="black" points="187.5,-252.264 184,-242.264 180.5,-252.264 187.5,-252.264"/>
</g>
<!-- kaldi -->
<g id="node2" class="node"><title>kaldi</title>
<ellipse fill="white" stroke="black" cx="577" cy="-520" rx="90.4879" ry="18"/>
<text text-anchor="middle" x="577" y="-516.3" font-family="Times,serif" font-size="14.00">kaldi&#45;gstreamer&#45;server</text>
</g>
<!-- Kõnele fast -->
<g id="node4" class="node"><title>Kõnele fast</title>
<ellipse fill="yellow" stroke="black" cx="577" cy="-402" rx="77.1743" ry="26.7407"/>
<text text-anchor="middle" x="577" y="-405.8" font-family="Times,serif" font-size="14.00">Kõnele service</text>
<text text-anchor="middle" x="577" y="-390.8" font-family="Times,serif" font-size="14.00">(fast recognition)</text>
</g>
<!-- kaldi&#45;&gt;Kõnele fast -->
<g id="edge1" class="edge"><title>kaldi&#45;&gt;Kõnele fast</title>
<path fill="none" stroke="black" d="M577,-501.884C577,-485.494 577,-460.242 577,-439.36"/>
<polygon fill="black" stroke="black" points="580.5,-439.213 577,-429.214 573.5,-439.214 580.5,-439.213"/>
<text text-anchor="middle" x="611.5" y="-472.3" font-family="Times,serif" font-size="14.00">WebSockets</text>
</g>
<!-- pocketsphinx -->
<g id="node3" class="node"><title>pocketsphinx</title>
<ellipse fill="white" stroke="black" cx="367" cy="-520" rx="100.611" ry="18"/>
<text text-anchor="middle" x="367" y="-516.3" font-family="Times,serif" font-size="14.00">ruby&#45;pocketsphinx&#45;server</text>
</g>
<!-- Kõnele grammar -->
<g id="node5" class="node"><title>Kõnele grammar</title>
<ellipse fill="yellow" stroke="black" cx="396" cy="-402" rx="84.2802" ry="26.7407"/>
<text text-anchor="middle" x="396" y="-405.8" font-family="Times,serif" font-size="14.00">Kõnele service</text>
<text text-anchor="middle" x="396" y="-390.8" font-family="Times,serif" font-size="14.00">(grammar support)</text>
</g>
<!-- pocketsphinx&#45;&gt;Kõnele grammar -->
<g id="edge2" class="edge"><title>pocketsphinx&#45;&gt;Kõnele grammar</title>
<path fill="none" stroke="black" d="M371.279,-501.884C375.395,-485.419 381.747,-460.012 386.981,-439.074"/>
<polygon fill="black" stroke="black" points="390.417,-439.764 389.447,-429.214 383.626,-438.066 390.417,-439.764"/>
<text text-anchor="middle" x="442" y="-472.3" font-family="Times,serif" font-size="14.00">net&#45;speech&#45;api (HTTP)</text>
</g>
<!-- Kõnele old -->
<g id="node6" class="node"><title>Kõnele old</title>
<ellipse fill="yellow" stroke="black" cx="184" cy="-402" rx="109.402" ry="26.7407"/>
<text text-anchor="middle" x="184" y="-405.8" font-family="Times,serif" font-size="14.00">Kõnele service</text>
<text text-anchor="middle" x="184" y="-390.8" font-family="Times,serif" font-size="14.00">(grammar support, OLD)</text>
</g>
<!-- pocketsphinx&#45;&gt;Kõnele old -->
<g id="edge3" class="edge"><title>pocketsphinx&#45;&gt;Kõnele old</title>
<path fill="none" stroke="black" d="M298.014,-506.798C280.397,-501.621 262.168,-494.305 247,-484 229.469,-472.089 214.626,-453.755 203.759,-437.541"/>
<polygon fill="black" stroke="black" points="206.493,-435.322 198.139,-428.805 200.606,-439.109 206.493,-435.322"/>
<text text-anchor="middle" x="310" y="-472.3" font-family="Times,serif" font-size="14.00">net&#45;speech&#45;api (HTTP)</text>
</g>
<!-- Android SpeechRecognizer -->
<g id="node7" class="node"><title>Android SpeechRecognizer</title>
<ellipse fill="white" stroke="black" cx="413" cy="-224" rx="107.336" ry="18"/>
<text text-anchor="middle" x="413" y="-220.3" font-family="Times,serif" font-size="14.00">Android SpeechRecognizer</text>
</g>
<!-- Kõnele fast&#45;&gt;Android SpeechRecognizer -->
<g id="edge4" class="edge"><title>Kõnele fast&#45;&gt;Android SpeechRecognizer</title>
<path fill="none" stroke="black" d="M553.851,-376.157C522.625,-342.647 467.337,-283.313 436.125,-249.817"/>
<polygon fill="black" stroke="black" points="438.485,-247.215 429.107,-242.285 433.363,-251.988 438.485,-247.215"/>
</g>
<!-- Kõnele grammar&#45;&gt;Android SpeechRecognizer -->
<g id="edge5" class="edge"><title>Kõnele grammar&#45;&gt;Android SpeechRecognizer</title>
<path fill="none" stroke="black" d="M398.508,-375.031C401.692,-342.071 407.157,-285.49 410.389,-252.032"/>
<polygon fill="black" stroke="black" points="413.876,-252.331 411.354,-242.041 406.909,-251.658 413.876,-252.331"/>
</g>
<!-- Kõnele old&#45;&gt;Kõnele Dialog -->
<g id="edge6" class="edge"><title>Kõnele old&#45;&gt;Kõnele Dialog</title>
<path fill="none" stroke="black" d="M184,-374.925C184,-366.114 184,-356.254 184,-347.347"/>
<polygon fill="black" stroke="black" points="187.5,-347.088 184,-337.088 180.5,-347.088 187.5,-347.088"/>
</g>
<!-- Kõnele IME -->
<g id="node9" class="node"><title>Kõnele IME</title>
<ellipse fill="yellow" stroke="black" cx="71" cy="-129" rx="55.3682" ry="18"/>
<text text-anchor="middle" x="71" y="-125.3" font-family="Times,serif" font-size="14.00">Kõnele IME</text>
</g>
<!-- Android SpeechRecognizer&#45;&gt;Kõnele IME -->
<g id="edge8" class="edge"><title>Android SpeechRecognizer&#45;&gt;Kõnele IME</title>
<path fill="none" stroke="black" d="M352.247,-209.104C333.911,-205.187 313.689,-201.142 295,-198 224.327,-186.118 201.447,-204.843 135,-178 120.596,-172.181 106.561,-162.284 95.3228,-152.983"/>
<polygon fill="black" stroke="black" points="97.5273,-150.262 87.6684,-146.383 92.956,-155.564 97.5273,-150.262"/>
</g>
<!-- Google Translate -->
<g id="node12" class="node"><title>Google Translate</title>
<ellipse fill="white" stroke="black" cx="301" cy="-34" rx="71.2405" ry="18"/>
<text text-anchor="middle" x="301" y="-30.3" font-family="Times,serif" font-size="14.00">Google Translate</text>
</g>
<!-- Android SpeechRecognizer&#45;&gt;Google Translate -->
<g id="edge13" class="edge"><title>Android SpeechRecognizer&#45;&gt;Google Translate</title>
<path fill="none" stroke="black" d="M404.963,-205.889C393.638,-182.226 371.908,-138.42 350,-103 340.92,-88.3198 329.734,-72.6436 320.343,-60.0466"/>
<polygon fill="black" stroke="black" points="322.991,-57.7454 314.176,-51.8677 317.402,-61.9596 322.991,-57.7454"/>
</g>
<!-- Arvutaja -->
<g id="node13" class="node"><title>Arvutaja</title>
<ellipse fill="white" stroke="black" cx="432" cy="-34" rx="41.394" ry="18"/>
<text text-anchor="middle" x="432" y="-30.3" font-family="Times,serif" font-size="14.00">Arvutaja</text>
</g>
<!-- Android SpeechRecognizer&#45;&gt;Arvutaja -->
<g id="edge9" class="edge"><title>Android SpeechRecognizer&#45;&gt;Arvutaja</title>
<path fill="none" stroke="black" d="M414.72,-205.985C418.018,-173.35 425.258,-101.714 429.24,-62.3118"/>
<polygon fill="black" stroke="black" points="432.747,-62.4136 430.271,-52.1123 425.783,-61.7097 432.747,-62.4136"/>
</g>
<!-- Google Keep -->
<g id="node11" class="node"><title>Google Keep</title>
<ellipse fill="white" stroke="black" cx="154" cy="-34" rx="57.2688" ry="18"/>
<text text-anchor="middle" x="154" y="-30.3" font-family="Times,serif" font-size="14.00">Google Keep</text>
</g>
<!-- Android RecognizerIntent&#45;&gt;Google Keep -->
<g id="edge10" class="edge"><title>Android RecognizerIntent&#45;&gt;Google Keep</title>
<path fill="none" stroke="black" d="M250.126,-210.258C283.189,-202.404 318.226,-191.295 328,-178 347.745,-151.144 349.295,-128.644 328,-103 297.093,-65.7805 265.499,-101.983 221,-83 206.385,-76.7652 191.842,-66.9076 180.059,-57.7433"/>
<polygon fill="black" stroke="black" points="181.988,-54.8031 172.005,-51.2546 177.597,-60.254 181.988,-54.8031"/>
</g>
<!-- Kõnele IME&#45;&gt;Google Keep -->
<g id="edge12" class="edge"><title>Kõnele IME&#45;&gt;Google Keep</title>
<path fill="none" stroke="black" d="M85.8387,-111.373C98.8218,-96.8261 117.842,-75.5142 132.494,-59.0974"/>
<polygon fill="black" stroke="black" points="135.242,-61.2739 139.29,-51.4826 130.02,-56.6129 135.242,-61.2739"/>
</g>
<!-- Kõnele IME&#45;&gt;Google Translate -->
<g id="edge15" class="edge"><title>Kõnele IME&#45;&gt;Google Translate</title>
<path fill="none" stroke="black" d="M103.243,-114.381C113.309,-110.407 124.521,-106.261 135,-103 172.056,-91.4664 184.003,-97.5041 220,-83 237.076,-76.1197 254.804,-66.003 269.306,-56.8291"/>
<polygon fill="black" stroke="black" points="271.392,-59.6487 277.884,-51.2763 267.588,-53.7724 271.392,-59.6487"/>
</g>
<!-- Google Keyboard -->
<g id="node10" class="node"><title>Google Keyboard</title>
<ellipse fill="white" stroke="black" cx="230" cy="-129" rx="85.19" ry="18"/>
<text text-anchor="middle" x="230" y="-125.3" font-family="Times,serif" font-size="14.00">Google Keyboard, ...</text>
</g>
<!-- Google Keyboard&#45;&gt;Google Keep -->
<g id="edge11" class="edge"><title>Google Keyboard&#45;&gt;Google Keep</title>
<path fill="none" stroke="black" d="M216.06,-110.942C204.31,-96.5637 187.346,-75.8045 174.122,-59.6231"/>
<polygon fill="black" stroke="black" points="176.634,-57.1651 167.595,-51.6366 171.213,-61.5947 176.634,-57.1651"/>
</g>
<!-- Google Keyboard&#45;&gt;Google Translate -->
<g id="edge14" class="edge"><title>Google Keyboard&#45;&gt;Google Translate</title>
<path fill="none" stroke="black" d="M243.022,-110.942C253.932,-96.653 269.651,-76.0622 281.971,-59.9252"/>
<polygon fill="black" stroke="black" points="284.774,-62.0218 288.06,-51.9495 279.21,-57.7741 284.774,-62.0218"/>
</g>
</g>
</svg>
