<?xml version="1.0" encoding="UTF-8" standalone="no"?>
<!DOCTYPE svg PUBLIC "-//W3C//DTD SVG 1.1//EN"
 "http://www.w3.org/Graphics/SVG/1.1/DTD/svg11.dtd">
<!-- Generated by graphviz version 2.38.0 (20140413.2041)
 -->
<!-- Title: G Pages: 1 -->
<svg width="856pt" height="593pt"
 viewBox="0.00 0.00 856.00 593.00" xmlns="http://www.w3.org/2000/svg" xmlns:xlink="http://www.w3.org/1999/xlink">
<g id="graph0" class="graph" transform="scale(1 1) rotate(0) translate(4 589)">
<title>G</title>
<polygon fill="white" stroke="none" points="-4,4 -4,-589 852,-589 852,4 -4,4"/>
<g id="clust1" class="cluster"><title>cluster_0</title>
<polygon fill="lightblue" stroke="lightblue" points="534,-506 534,-577 808,-577 808,-506 534,-506"/>
<text text-anchor="middle" x="590" y="-565" font-family="Helvetica,sans-Serif" font-size="10.00">Cloud speech servers</text>
</g>
<g id="clust2" class="cluster"><title>cluster_1</title>
<polygon fill="none" stroke="black" stroke-dasharray="1,5" points="404,-407 404,-478 812,-478 812,-407 404,-407"/>
<text text-anchor="middle" x="466" y="-466" font-family="Helvetica,sans-Serif" font-size="10.00">Android speech services</text>
</g>
<g id="clust3" class="cluster"><title>cluster_2</title>
<polygon fill="none" stroke="black" stroke-dasharray="1,5" points="8,-171 8,-242 277,-242 277,-171 8,-171"/>
<text text-anchor="middle" x="92.5" y="-230" font-family="Helvetica,sans-Serif" font-size="10.00">Android RecognizerIntent activities</text>
</g>
<g id="clust4" class="cluster"><title>cluster_3</title>
<polygon fill="none" stroke="black" stroke-dasharray="1,5" points="285,-171 285,-242 613,-242 613,-171 285,-171"/>
<text text-anchor="middle" x="332.5" y="-230" font-family="Helvetica,sans-Serif" font-size="10.00">Android IME apps</text>
</g>
<g id="clust5" class="cluster"><title>cluster_4</title>
<polygon fill="lightgrey" stroke="lightgrey" points="428,-8 428,-79 699,-79 699,-8 428,-8"/>
<text text-anchor="middle" x="465" y="-67" font-family="Helvetica,sans-Serif" font-size="10.00">Android apps</text>
</g>
<!-- Kõnele View -->
<g id="node1" class="node"><title>Kõnele View</title>
<polygon fill="yellow" stroke="black" points="412,-305 288,-305 288,-301 284,-301 284,-297 288,-297 288,-277 284,-277 284,-273 288,-273 288,-269 412,-269 412,-305"/>
<polyline fill="none" stroke="black" points="288,-301 292,-301 292,-297 288,-297 "/>
<polyline fill="none" stroke="black" points="288,-277 292,-277 292,-273 288,-273 "/>
<text text-anchor="middle" x="350" y="-290" font-family="Helvetica,sans-Serif" font-size="10.00">Kõnele mic+swipe editor</text>
<text text-anchor="middle" x="350" y="-279" font-family="Helvetica,sans-Serif" font-size="10.00">(view component)</text>
</g>
<!-- panel -->
<g id="node11" class="node"><title>panel</title>
<polygon fill="yellow" stroke="black" points="268.5,-215 137.5,-215 137.5,-179 268.5,-179 268.5,-215"/>
<text text-anchor="middle" x="203" y="-194.5" font-family="Helvetica,sans-Serif" font-size="10.00">Kõnele voice search panel</text>
</g>
<!-- Kõnele View&#45;&gt;panel -->
<g id="edge10" class="edge"><title>Kõnele View&#45;&gt;panel</title>
<path fill="none" stroke="black" d="M321.308,-268.824C297.126,-254.348 262.481,-233.607 236.927,-218.31"/>
<polygon fill="black" stroke="black" points="237.846,-216.413 231.62,-215.133 235.689,-220.017 237.846,-216.413"/>
</g>
<!-- Kõnele IME -->
<g id="node12" class="node"><title>Kõnele IME</title>
<polygon fill="yellow" stroke="black" points="407,-215 293,-215 293,-179 407,-179 407,-215"/>
<text text-anchor="middle" x="350" y="-194.5" font-family="Helvetica,sans-Serif" font-size="10.00">Kõnele speak &amp; swipe</text>
</g>
<!-- Kõnele View&#45;&gt;Kõnele IME -->
<g id="edge9" class="edge"><title>Kõnele View&#45;&gt;Kõnele IME</title>
<path fill="none" stroke="black" d="M350,-268.614C350,-255.027 350,-236.017 350,-221.144"/>
<polygon fill="black" stroke="black" points="352.1,-221.05 350,-215.05 347.9,-221.05 352.1,-221.05"/>
</g>
<!-- kaldi -->
<g id="node2" class="node"><title>kaldi</title>
<polygon fill="none" stroke="black" points="655.5,-550 542.5,-550 542.5,-514 655.5,-514 655.5,-550"/>
<text text-anchor="middle" x="599" y="-529.5" font-family="Helvetica,sans-Serif" font-size="10.00">kaldi&#45;gstreamer&#45;server</text>
</g>
<!-- Kõnele fast -->
<g id="node5" class="node"><title>Kõnele fast</title>
<polygon fill="yellow" stroke="black" points="656,-451 534,-451 534,-415 656,-415 656,-451"/>
<text text-anchor="middle" x="595" y="-430.5" font-family="Helvetica,sans-Serif" font-size="10.00">Kõnele (fast recognition)</text>
</g>
<!-- kaldi&#45;&gt;Kõnele fast -->
<g id="edge1" class="edge"><title>kaldi&#45;&gt;Kõnele fast</title>
<path fill="none" stroke="black" d="M598.285,-513.658C597.636,-497.934 596.675,-474.631 595.96,-457.287"/>
<polygon fill="black" stroke="black" points="598.054,-457.1 595.709,-451.192 593.858,-457.273 598.054,-457.1"/>
<text text-anchor="middle" x="623.5" y="-488.8" font-family="monospace" font-size="9.00">WebSockets</text>
</g>
<!-- pocketsphinx -->
<g id="node3" class="node"><title>pocketsphinx</title>
<polygon fill="none" stroke="black" points="800,-550 674,-550 674,-514 800,-514 800,-550"/>
<text text-anchor="middle" x="737" y="-529.5" font-family="Helvetica,sans-Serif" font-size="10.00">ruby&#45;pocketsphinx&#45;server</text>
</g>
<!-- Kõnele grammar -->
<g id="node6" class="node"><title>Kõnele grammar</title>
<polygon fill="yellow" stroke="black" points="803.5,-451 674.5,-451 674.5,-415 803.5,-415 803.5,-451"/>
<text text-anchor="middle" x="739" y="-430.5" font-family="Helvetica,sans-Serif" font-size="10.00">Kõnele (grammar support)</text>
</g>
<!-- pocketsphinx&#45;&gt;Kõnele grammar -->
<g id="edge2" class="edge"><title>pocketsphinx&#45;&gt;Kõnele grammar</title>
<path fill="none" stroke="black" d="M737.358,-513.658C737.682,-497.934 738.162,-474.631 738.52,-457.287"/>
<polygon fill="black" stroke="black" points="740.621,-457.234 738.646,-451.192 736.422,-457.147 740.621,-457.234"/>
<text text-anchor="middle" x="792.5" y="-488.8" font-family="monospace" font-size="9.00">net&#45;speech&#45;api (HTTP)</text>
</g>
<!-- other_service -->
<g id="node4" class="node"><title>other_service</title>
<polygon fill="none" stroke="black" points="515.5,-451 412.5,-451 412.5,-415 515.5,-415 515.5,-451"/>
<text text-anchor="middle" x="464" y="-436" font-family="Helvetica,sans-Serif" font-size="10.00">some other service:</text>
<text text-anchor="middle" x="464" y="-425" font-family="Helvetica,sans-Serif" font-size="10.00">Google, ...</text>
</g>
<!-- Android SpeechRecognizer -->
<g id="node7" class="node"><title>Android SpeechRecognizer</title>
<polygon fill="lightgreen" stroke="black" points="604.007,-342.049 609.971,-342.148 615.872,-342.295 621.688,-342.491 627.395,-342.735 632.97,-343.027 638.39,-343.364 643.635,-343.748 648.685,-344.176 653.52,-344.647 658.125,-345.161 662.482,-345.715 666.577,-346.308 670.397,-346.939 673.93,-347.605 677.168,-348.306 680.102,-349.039 682.726,-349.801 685.035,-350.592 687.026,-351.408 688.698,-352.248 690.051,-353.109 691.088,-353.989 691.81,-354.886 692.224,-355.797 692.336,-356.719 692.152,-357.65 691.681,-358.587 690.933,-359.529 689.917,-360.471 688.646,-361.413 687.13,-362.35 685.383,-363.281 683.416,-364.203 681.243,-365.114 678.877,-366.011 676.332,-366.891 673.62,-367.752 670.754,-368.592 667.747,-369.408 664.612,-370.199 661.361,-370.961 658.005,-371.694 654.555,-372.395 651.021,-373.061 647.413,-373.692 643.74,-374.285 640.011,-374.839 636.233,-375.353 632.412,-375.824 628.556,-376.252 624.67,-376.636 620.759,-376.973 616.828,-377.265 612.88,-377.509 608.919,-377.705 604.949,-377.852 600.972,-377.951 596.991,-378 593.009,-378 589.028,-377.951 585.051,-377.852 581.081,-377.705 577.12,-377.509 573.172,-377.265 569.241,-376.973 565.33,-376.636 561.444,-376.252 557.588,-375.824 553.767,-375.353 549.989,-374.839 546.26,-374.285 542.587,-373.692 538.979,-373.061 535.445,-372.395 531.995,-371.694 528.639,-370.961 525.388,-370.199 522.253,-369.408 519.246,-368.592 516.38,-367.752 513.668,-366.891 511.123,-366.011 508.757,-365.114 506.584,-364.203 504.617,-363.281 502.87,-362.35 501.354,-361.413 500.083,-360.471 499.067,-359.529 498.319,-358.587 497.848,-357.65 497.664,-356.719 497.776,-355.797 498.19,-354.886 498.912,-353.989 499.949,-353.109 501.302,-352.248 502.974,-351.408 504.965,-350.592 507.274,-349.801 509.898,-349.039 512.832,-348.306 516.07,-347.605 519.603,-346.939 523.423,-346.308 527.518,-345.715 531.875,-345.161 536.48,-344.647 541.315,-344.176 546.365,-343.748 551.61,-343.364 557.03,-343.027 562.605,-342.735 568.312,-342.491 574.128,-342.295 580.029,-342.148 585.993,-342.049 591.993,-342 598.007,-342 604.007,-342.049"/>
<text text-anchor="middle" x="595" y="-357.5" font-family="Helvetica,sans-Serif" font-size="10.00">Android SpeechRecognizer API</text>
</g>
<!-- other_service&#45;&gt;Android SpeechRecognizer -->
<g id="edge5" class="edge"><title>other_service&#45;&gt;Android SpeechRecognizer</title>
<path fill="none" stroke="black" d="M495.378,-414.994C514.972,-404.374 540.219,-390.69 560.394,-379.756"/>
<polygon fill="black" stroke="black" points="561.399,-381.6 565.674,-376.894 559.398,-377.907 561.399,-381.6"/>
</g>
<!-- Kõnele fast&#45;&gt;Android SpeechRecognizer -->
<g id="edge3" class="edge"><title>Kõnele fast&#45;&gt;Android SpeechRecognizer</title>
<path fill="none" stroke="black" d="M595,-414.813C595,-405.569 595,-394.043 595,-384.032"/>
<polygon fill="black" stroke="black" points="597.1,-384.029 595,-378.029 592.9,-384.029 597.1,-384.029"/>
</g>
<!-- Kõnele grammar&#45;&gt;Android SpeechRecognizer -->
<g id="edge4" class="edge"><title>Kõnele grammar&#45;&gt;Android SpeechRecognizer</title>
<path fill="none" stroke="black" d="M704.508,-414.994C682.724,-404.253 654.584,-390.378 632.285,-379.384"/>
<polygon fill="black" stroke="black" points="633.059,-377.424 626.749,-376.654 631.202,-381.191 633.059,-377.424"/>
</g>
<!-- Android SpeechRecognizer&#45;&gt;Kõnele View -->
<g id="edge8" class="edge"><title>Android SpeechRecognizer&#45;&gt;Kõnele View</title>
<path fill="none" stroke="black" d="M543.042,-343.943C505.555,-333.079 454.7,-318.342 414.597,-306.72"/>
<polygon fill="black" stroke="black" points="415.109,-304.682 408.762,-305.029 413.94,-308.716 415.109,-304.682"/>
</g>
<!-- other_ime -->
<g id="node14" class="node"><title>other_ime</title>
<polygon fill="none" stroke="black" points="605,-215 497,-215 497,-179 605,-179 605,-215"/>
<text text-anchor="middle" x="551" y="-194.5" font-family="Helvetica,sans-Serif" font-size="10.00">some other keyboard</text>
</g>
<!-- Android SpeechRecognizer&#45;&gt;other_ime -->
<g id="edge12" class="edge"><title>Android SpeechRecognizer&#45;&gt;other_ime</title>
<path fill="none" stroke="black" stroke-dasharray="5,2" d="M590.244,-341.983C587.28,-331.356 583.399,-317.386 580,-305 572.073,-276.113 563.066,-242.802 557.222,-221.123"/>
<polygon fill="black" stroke="black" points="559.177,-220.305 555.588,-215.058 555.121,-221.398 559.177,-220.305"/>
<text text-anchor="middle" x="599.5" y="-284.8" font-family="Verdana" font-size="9.00">(maybe)</text>
</g>
<!-- Google Translate -->
<g id="node16" class="node"><title>Google Translate</title>
<polygon fill="none" stroke="black" points="618.5,-52 527.5,-52 527.5,-16 618.5,-16 618.5,-52"/>
<text text-anchor="middle" x="573" y="-31.5" font-family="Helvetica,sans-Serif" font-size="10.00">Google Translate</text>
</g>
<!-- Android SpeechRecognizer&#45;&gt;Google Translate -->
<g id="edge14" class="edge"><title>Android SpeechRecognizer&#45;&gt;Google Translate</title>
<path fill="none" stroke="black" d="M610.237,-341.964C620.809,-328.358 633,-308.272 633,-288 633,-288 633,-288 633,-123 633,-96.971 614.859,-72.9599 598.527,-56.6175"/>
<polygon fill="black" stroke="black" points="599.755,-54.8836 593.985,-52.2162 596.832,-57.8997 599.755,-54.8836"/>
</g>
<!-- Arvutaja -->
<g id="node17" class="node"><title>Arvutaja</title>
<polygon fill="none" stroke="black" points="691,-52 637,-52 637,-16 691,-16 691,-52"/>
<text text-anchor="middle" x="664" y="-31.5" font-family="Helvetica,sans-Serif" font-size="10.00">Arvutaja</text>
</g>
<!-- Android SpeechRecognizer&#45;&gt;Arvutaja -->
<g id="edge11" class="edge"><title>Android SpeechRecognizer&#45;&gt;Arvutaja</title>
<path fill="none" stroke="black" d="M629.886,-342.746C649.865,-330.788 671,-312.376 671,-288 671,-288 671,-288 671,-123 671,-101.024 668.804,-76.0577 666.872,-58.3457"/>
<polygon fill="black" stroke="black" points="668.934,-57.8949 666.176,-52.1674 664.761,-58.3646 668.934,-57.8949"/>
</g>
<!-- Android RecognizerIntent -->
<g id="node8" class="node"><title>Android RecognizerIntent</title>
<polygon fill="lightgreen" stroke="black" points="211.472,-106.049 217.081,-106.148 222.632,-106.295 228.102,-106.491 233.47,-106.735 238.713,-107.027 243.811,-107.364 248.745,-107.748 253.494,-108.176 258.043,-108.647 262.373,-109.161 266.471,-109.715 270.323,-110.308 273.916,-110.939 277.24,-111.605 280.285,-112.306 283.045,-113.039 285.513,-113.801 287.684,-114.592 289.557,-115.408 291.13,-116.248 292.403,-117.109 293.377,-117.989 294.057,-118.886 294.447,-119.797 294.552,-120.719 294.379,-121.65 293.936,-122.587 293.232,-123.529 292.277,-124.471 291.081,-125.413 289.655,-126.35 288.012,-127.281 286.162,-128.203 284.118,-129.114 281.893,-130.011 279.498,-130.891 276.947,-131.752 274.252,-132.592 271.424,-133.408 268.476,-134.199 265.418,-134.961 262.261,-135.694 259.016,-136.395 255.692,-137.061 252.298,-137.692 248.844,-138.285 245.336,-138.839 241.782,-139.353 238.189,-139.824 234.562,-140.252 230.907,-140.636 227.229,-140.973 223.531,-141.265 219.817,-141.509 216.092,-141.705 212.358,-141.852 208.617,-141.951 204.873,-142 201.127,-142 197.383,-141.951 193.642,-141.852 189.908,-141.705 186.183,-141.509 182.469,-141.265 178.771,-140.973 175.093,-140.636 171.438,-140.252 167.811,-139.824 164.218,-139.353 160.664,-138.839 157.156,-138.285 153.702,-137.692 150.308,-137.061 146.984,-136.395 143.739,-135.694 140.582,-134.961 137.524,-134.199 134.576,-133.408 131.748,-132.592 129.053,-131.752 126.502,-130.891 124.107,-130.011 121.882,-129.114 119.838,-128.203 117.988,-127.281 116.345,-126.35 114.919,-125.413 113.723,-124.471 112.768,-123.529 112.064,-122.587 111.621,-121.65 111.448,-120.719 111.553,-119.797 111.943,-118.886 112.623,-117.989 113.597,-117.109 114.87,-116.248 116.443,-115.408 118.316,-114.592 120.487,-113.801 122.955,-113.039 125.715,-112.306 128.76,-111.605 132.084,-110.939 135.677,-110.308 139.529,-109.715 143.627,-109.161 147.957,-108.647 152.506,-108.176 157.255,-107.748 162.189,-107.364 167.287,-107.027 172.53,-106.735 177.898,-106.491 183.368,-106.295 188.919,-106.148 194.528,-106.049 200.172,-106 205.828,-106 211.472,-106.049"/>
<text text-anchor="middle" x="203" y="-121.5" font-family="Helvetica,sans-Serif" font-size="10.00">Android RecognizerIntent API</text>
</g>
<!-- Google Keep -->
<g id="node15" class="node"><title>Google Keep</title>
<polygon fill="none" stroke="black" points="509.5,-52 436.5,-52 436.5,-16 509.5,-16 509.5,-52"/>
<text text-anchor="middle" x="473" y="-31.5" font-family="Helvetica,sans-Serif" font-size="10.00">Google Keep</text>
</g>
<!-- Android RecognizerIntent&#45;&gt;Google Keep -->
<g id="edge13" class="edge"><title>Android RecognizerIntent&#45;&gt;Google Keep</title>
<path fill="none" stroke="black" d="M249.722,-107.772C300.63,-91.1798 381.362,-64.8672 430.531,-48.8418"/>
<polygon fill="black" stroke="black" points="431.313,-50.7958 436.367,-46.9398 430.011,-46.8025 431.313,-50.7958"/>
</g>
<!-- IME -->
<g id="node9" class="node"><title>IME</title>
<polygon fill="lightgreen" stroke="black" points="480.075,-106.049 484.76,-106.148 489.396,-106.295 493.965,-106.491 498.448,-106.735 502.826,-107.027 507.084,-107.364 511.204,-107.748 515.171,-108.176 518.97,-108.647 522.587,-109.161 526.009,-109.715 529.226,-110.308 532.227,-110.939 535.003,-111.605 537.546,-112.306 539.851,-113.039 541.912,-113.801 543.726,-114.592 545.29,-115.408 546.603,-116.248 547.666,-117.109 548.48,-117.989 549.048,-118.886 549.373,-119.797 549.461,-120.719 549.316,-121.65 548.947,-122.587 548.359,-123.529 547.561,-124.471 546.562,-125.413 545.372,-126.35 543.999,-127.281 542.454,-128.203 540.747,-129.114 538.889,-130.011 536.889,-130.891 534.759,-131.752 532.507,-132.592 530.146,-133.408 527.683,-134.199 525.129,-134.961 522.493,-135.694 519.782,-136.395 517.006,-137.061 514.172,-137.692 511.287,-138.285 508.358,-138.839 505.39,-139.353 502.389,-139.824 499.36,-140.252 496.307,-140.636 493.235,-140.973 490.147,-141.265 487.045,-141.509 483.934,-141.705 480.815,-141.852 477.691,-141.951 474.564,-142 471.436,-142 468.309,-141.951 465.185,-141.852 462.066,-141.705 458.955,-141.509 455.853,-141.265 452.765,-140.973 449.693,-140.636 446.64,-140.252 443.611,-139.824 440.61,-139.353 437.642,-138.839 434.713,-138.285 431.828,-137.692 428.994,-137.061 426.218,-136.395 423.507,-135.694 420.871,-134.961 418.317,-134.199 415.854,-133.408 413.493,-132.592 411.241,-131.752 409.111,-130.891 407.111,-130.011 405.253,-129.114 403.546,-128.203 402.001,-127.281 400.628,-126.35 399.438,-125.413 398.439,-124.471 397.641,-123.529 397.053,-122.587 396.684,-121.65 396.539,-120.719 396.627,-119.797 396.952,-118.886 397.52,-117.989 398.334,-117.109 399.397,-116.248 400.71,-115.408 402.274,-114.592 404.088,-113.801 406.149,-113.039 408.454,-112.306 410.997,-111.605 413.773,-110.939 416.774,-110.308 419.991,-109.715 423.413,-109.161 427.03,-108.647 430.829,-108.176 434.796,-107.748 438.916,-107.364 443.174,-107.027 447.552,-106.735 452.035,-106.491 456.604,-106.295 461.24,-106.148 465.925,-106.049 470.638,-106 475.362,-106 480.075,-106.049"/>
<text text-anchor="middle" x="473" y="-121.5" font-family="Helvetica,sans-Serif" font-size="10.00">Input Method Editor API</text>
</g>
<!-- IME&#45;&gt;Google Keep -->
<g id="edge18" class="edge"><title>IME&#45;&gt;Google Keep</title>
<path fill="none" stroke="black" d="M473,-105.614C473,-92.0272 473,-73.0172 473,-58.1437"/>
<polygon fill="black" stroke="black" points="475.1,-58.0504 473,-52.0504 470.9,-58.0504 475.1,-58.0504"/>
</g>
<!-- IME&#45;&gt;Google Translate -->
<g id="edge19" class="edge"><title>IME&#45;&gt;Google Translate</title>
<path fill="none" stroke="black" d="M492.281,-106.033C508.363,-91.8804 531.368,-71.6361 548.707,-56.3777"/>
<polygon fill="black" stroke="black" points="550.32,-57.7558 553.437,-52.2155 547.545,-54.6028 550.32,-57.7558"/>
</g>
<!-- other_activity -->
<g id="node10" class="node"><title>other_activity</title>
<polygon fill="none" stroke="black" points="119.5,-215 16.5,-215 16.5,-179 119.5,-179 119.5,-215"/>
<text text-anchor="middle" x="68" y="-200" font-family="Helvetica,sans-Serif" font-size="10.00">some other activity:</text>
<text text-anchor="middle" x="68" y="-189" font-family="Helvetica,sans-Serif" font-size="10.00">Google, ...</text>
</g>
<!-- other_activity&#45;&gt;Android RecognizerIntent -->
<g id="edge7" class="edge"><title>other_activity&#45;&gt;Android RecognizerIntent</title>
<path fill="none" stroke="black" d="M100.336,-178.994C120.672,-168.298 146.916,-154.496 167.779,-143.524"/>
<polygon fill="black" stroke="black" points="168.902,-145.306 173.235,-140.654 166.947,-141.588 168.902,-145.306"/>
</g>
<!-- panel&#45;&gt;Android RecognizerIntent -->
<g id="edge6" class="edge"><title>panel&#45;&gt;Android RecognizerIntent</title>
<path fill="none" stroke="black" d="M203,-178.813C203,-169.569 203,-158.043 203,-148.032"/>
<polygon fill="black" stroke="black" points="205.1,-148.029 203,-142.029 200.9,-148.029 205.1,-148.029"/>
</g>
<!-- Kõnele IME&#45;&gt;IME -->
<g id="edge16" class="edge"><title>Kõnele IME&#45;&gt;IME</title>
<path fill="none" stroke="black" d="M379.462,-178.994C398.041,-168.269 422.033,-154.42 441.067,-143.433"/>
<polygon fill="black" stroke="black" points="442.149,-145.233 446.295,-140.415 440.049,-141.596 442.149,-145.233"/>
</g>
<!-- Gboard -->
<g id="node13" class="node"><title>Gboard</title>
<polygon fill="none" stroke="black" points="479,-215 425,-215 425,-179 479,-179 479,-215"/>
<text text-anchor="middle" x="452" y="-194.5" font-family="Helvetica,sans-Serif" font-size="10.00">Gboard</text>
</g>
<!-- Gboard&#45;&gt;IME -->
<g id="edge15" class="edge"><title>Gboard&#45;&gt;IME</title>
<path fill="none" stroke="black" d="M457.084,-178.813C459.818,-169.569 463.227,-158.043 466.188,-148.032"/>
<polygon fill="black" stroke="black" points="468.275,-148.378 467.963,-142.029 464.248,-147.187 468.275,-148.378"/>
</g>
<!-- other_ime&#45;&gt;IME -->
<g id="edge17" class="edge"><title>other_ime&#45;&gt;IME</title>
<path fill="none" stroke="black" d="M532.118,-178.813C521.053,-168.741 507.013,-155.96 495.391,-145.382"/>
<polygon fill="black" stroke="black" points="496.755,-143.783 490.904,-141.297 493.927,-146.889 496.755,-143.783"/>
</g>
</g>
</svg>
