<?xml version="1.0" encoding="UTF-8" standalone="no"?>
<!DOCTYPE svg PUBLIC "-//W3C//DTD SVG 1.1//EN"
 "http://www.w3.org/Graphics/SVG/1.1/DTD/svg11.dtd">
<!-- Generated by graphviz version 2.40.1 (20161225.0304)
 -->
<!-- Title: G Pages: 1 -->
<svg width="379pt" height="652pt"
 viewBox="0.00 0.00 379.00 651.74" xmlns="http://www.w3.org/2000/svg" xmlns:xlink="http://www.w3.org/1999/xlink">
<g id="graph0" class="graph" transform="scale(1 1) rotate(0) translate(4 647.7384)">
<title>G</title>
<polygon fill="#ffffff" stroke="transparent" points="-4,4 -4,-647.7384 375,-647.7384 375,4 -4,4"/>
<g id="clust1" class="cluster">
<title>cluster_0</title>
<polygon fill="#add8e6" stroke="#add8e6" points="238,-98 238,-324 358,-324 358,-98 238,-98"/>
<text text-anchor="middle" x="298" y="-312" font-family="Helvetica,sans-Serif" font-size="10.00" fill="#000000">Cloud services</text>
</g>
<g id="clust2" class="cluster">
<title>cluster_1</title>
<polygon fill="none" stroke="#000000" stroke-dasharray="1,5" points="117,-8 117,-79 333,-79 333,-8 117,-8"/>
<text text-anchor="middle" x="225" y="-67" font-family="Helvetica,sans-Serif" font-size="10.00" fill="#000000">Devices</text>
</g>
<g id="clust3" class="cluster">
<title>cluster_3</title>
<polygon fill="#32cd32" stroke="#32cd32" points="8,-171 8,-553 230,-553 230,-171 8,-171"/>
<text text-anchor="middle" x="119" y="-541" font-family="Helvetica,sans-Serif" font-size="10.00" fill="#000000">Android activities</text>
</g>
<!-- user -->
<g id="node1" class="node">
<title>user</title>
<ellipse fill="none" stroke="#000000" cx="71" cy="-621.3692" rx="22.2391" ry="22.2391"/>
<text text-anchor="middle" x="71" y="-618.8692" font-family="Helvetica,sans-Serif" font-size="10.00" fill="#000000">User</text>
</g>
<!-- k6nele -->
<g id="node2" class="node">
<title>k6nele</title>
<g id="a_node2"><a xlink:title="Maps natural language audio to an Android intent using an external recognition service, possibly followed by its own rewrite rules, and then launches the intent.">
<polygon fill="#ffff00" stroke="#000000" points="126,-526 16,-526 16,-490 126,-490 126,-526"/>
<text text-anchor="middle" x="71" y="-511" font-family="Helvetica,sans-Serif" font-size="10.00" fill="#000000">Kõnele</text>
<text text-anchor="middle" x="71" y="-500" font-family="Helvetica,sans-Serif" font-size="10.00" fill="#000000">SpeechActionActivity</text>
</a>
</g>
</g>
<!-- user&#45;&gt;k6nele -->
<g id="edge1" class="edge">
<title>user&#45;&gt;k6nele</title>
<path fill="none" stroke="#000000" d="M55.6858,-605.0001C50.2571,-598.1249 44.8033,-589.7071 42,-581 36.5285,-564.0052 44.2381,-545.3005 53.078,-531.0796"/>
<polygon fill="#000000" stroke="#000000" points="54.8376,-532.2258 56.3636,-526.0547 51.3223,-529.9272 54.8376,-532.2258"/>
<text text-anchor="middle" x="60.5" y="-573.8" font-family="monospace" font-size="9.00" fill="#000000">voice</text>
<text text-anchor="middle" x="60.5" y="-563.8" font-family="monospace" font-size="9.00" fill="#000000">command</text>
</g>
<!-- k6nele&#45;&gt;user -->
<g id="edge2" class="edge">
<title>k6nele&#45;&gt;user</title>
<path fill="none" stroke="#000000" d="M75.1114,-526.2884C77.9208,-541.0464 80.8304,-562.3478 79,-581 78.6062,-585.0131 77.9972,-589.2188 77.287,-593.3371"/>
<polygon fill="#000000" stroke="#000000" points="75.215,-592.9937 76.1875,-599.2757 79.3448,-593.7584 75.215,-592.9937"/>
<text text-anchor="middle" x="95" y="-568.8" font-family="monospace" font-size="9.00" fill="#000000">prompt</text>
</g>
<!-- k6nele&#45;&gt;k6nele -->
<g id="edge5" class="edge">
<title>k6nele&#45;&gt;k6nele</title>
<path fill="none" stroke="#000000" d="M126.0733,-514.427C136.5741,-513.658 144,-511.5156 144,-508 144,-505.1985 139.2845,-503.269 132.0551,-502.2116"/>
<polygon fill="#000000" stroke="#000000" points="132.2624,-500.1219 126.0733,-501.573 131.8164,-504.2982 132.2624,-500.1219"/>
<text text-anchor="middle" x="160" y="-505.8" font-family="monospace" font-size="9.00" fill="#000000">intent</text>
</g>
<!-- fetch_intent -->
<g id="node8" class="node">
<title>fetch_intent</title>
<g id="a_node8"><a xlink:title="Fetches JSON from a URL, interprets it as an Android intent and launches it.">
<polygon fill="#ffff00" stroke="#000000" points="171.5,-396 84.5,-396 84.5,-360 171.5,-360 171.5,-396"/>
<text text-anchor="middle" x="128" y="-381" font-family="Helvetica,sans-Serif" font-size="10.00" fill="#000000">Kõnele</text>
<text text-anchor="middle" x="128" y="-370" font-family="Helvetica,sans-Serif" font-size="10.00" fill="#000000">FetchUrlActivity</text>
</a>
</g>
</g>
<!-- k6nele&#45;&gt;fetch_intent -->
<g id="edge3" class="edge">
<title>k6nele&#45;&gt;fetch_intent</title>
<path fill="none" stroke="#000000" d="M84.8221,-489.9842C92.2404,-479.6208 101.0542,-466.0925 107,-453 114.3872,-436.7334 119.743,-417.2796 123.1965,-402.2616"/>
<polygon fill="#000000" stroke="#000000" points="125.3098,-402.4316 124.5604,-396.1191 121.2097,-401.5211 125.3098,-402.4316"/>
<text text-anchor="middle" x="143" y="-445.8" font-family="monospace" font-size="9.00" fill="#000000">intent</text>
<text text-anchor="middle" x="143" y="-435.8" font-family="monospace" font-size="9.00" fill="#000000">{data=http}</text>
</g>
<!-- app_lightbulb -->
<g id="node9" class="node">
<title>app_lightbulb</title>
<g id="a_node9"><a xlink:title="Maps Android intent to an action on a concrete device.">
<polygon fill="none" stroke="#000000" points="173,-215 83,-215 83,-179 173,-179 173,-215"/>
<text text-anchor="middle" x="128" y="-194.5" font-family="Helvetica,sans-Serif" font-size="10.00" fill="#000000">LightBulbActivity</text>
</a>
</g>
</g>
<!-- k6nele&#45;&gt;app_lightbulb -->
<g id="edge4" class="edge">
<title>k6nele&#45;&gt;app_lightbulb</title>
<path fill="none" stroke="#000000" d="M54.0161,-489.9119C44.2894,-477.6469 34,-460.5296 34,-443 34,-443 34,-443 34,-279 34,-251.8198 56.5938,-231.5811 79.6275,-218.0106"/>
<polygon fill="#000000" stroke="#000000" points="80.6699,-219.8337 84.8516,-215.0458 78.5969,-216.1809 80.6699,-219.8337"/>
<text text-anchor="middle" x="50" y="-375.8" font-family="monospace" font-size="9.00" fill="#000000">intent</text>
</g>
<!-- service_dialog -->
<g id="node3" class="node">
<title>service_dialog</title>
<g id="a_node3"><a xlink:title="Maps a natural language string (in the incoming HTTP query) to some action (performed e.g. via other services). Responds with an Android intent (encoded in JSON).">
<polygon fill="none" stroke="#000000" points="324.5,-297 245.5,-297 245.5,-261 324.5,-261 324.5,-297"/>
<text text-anchor="middle" x="285" y="-276.5" font-family="Helvetica,sans-Serif" font-size="10.00" fill="#000000">Dialog service</text>
</a>
</g>
</g>
<!-- service_smart_home -->
<g id="node4" class="node">
<title>service_smart_home</title>
<g id="a_node4"><a xlink:title="Maps REST queries to commands to actual devices.">
<polygon fill="none" stroke="#000000" points="350,-142 246,-142 246,-106 350,-106 350,-142"/>
<text text-anchor="middle" x="298" y="-121.5" font-family="Helvetica,sans-Serif" font-size="10.00" fill="#000000">Smart home service</text>
</a>
</g>
</g>
<!-- service_dialog&#45;&gt;service_smart_home -->
<g id="edge10" class="edge">
<title>service_dialog&#45;&gt;service_smart_home</title>
<path fill="none" stroke="#000000" d="M286.5167,-260.9162C288.8428,-233.1817 293.2968,-180.0761 295.9217,-148.7795"/>
<polygon fill="#000000" stroke="#000000" points="298.0438,-148.6036 296.4527,-142.4491 293.8585,-148.2526 298.0438,-148.6036"/>
<text text-anchor="middle" x="305" y="-194.8" font-family="monospace" font-size="9.00" fill="#000000">http</text>
</g>
<!-- device_door -->
<g id="node6" class="node">
<title>device_door</title>
<polygon fill="none" stroke="#000000" points="253,-52 199,-52 199,-16 253,-16 253,-52"/>
<text text-anchor="middle" x="226" y="-31.5" font-family="Helvetica,sans-Serif" font-size="10.00" fill="#000000">Door</text>
</g>
<!-- service_smart_home&#45;&gt;device_door -->
<g id="edge12" class="edge">
<title>service_smart_home&#45;&gt;device_door</title>
<path fill="none" stroke="#000000" d="M283.4297,-105.7872C272.2067,-91.7584 256.6149,-72.2687 244.5091,-57.1364"/>
<polygon fill="#000000" stroke="#000000" points="245.9366,-55.5591 240.5486,-52.1858 242.657,-58.1829 245.9366,-55.5591"/>
</g>
<!-- device_tv -->
<g id="node7" class="node">
<title>device_tv</title>
<polygon fill="none" stroke="#000000" points="325,-52 271,-52 271,-16 325,-16 325,-52"/>
<text text-anchor="middle" x="298" y="-31.5" font-family="Helvetica,sans-Serif" font-size="10.00" fill="#000000">TV</text>
</g>
<!-- service_smart_home&#45;&gt;device_tv -->
<g id="edge11" class="edge">
<title>service_smart_home&#45;&gt;device_tv</title>
<path fill="none" stroke="#000000" d="M298,-105.7872C298,-92.1244 298,-73.2818 298,-58.3293"/>
<polygon fill="#000000" stroke="#000000" points="300.1001,-58.1857 298,-52.1858 295.9001,-58.1858 300.1001,-58.1857"/>
</g>
<!-- device_lightbulb -->
<g id="node5" class="node">
<title>device_lightbulb</title>
<polygon fill="none" stroke="#000000" points="181,-52 125,-52 125,-16 181,-16 181,-52"/>
<text text-anchor="middle" x="153" y="-31.5" font-family="Helvetica,sans-Serif" font-size="10.00" fill="#000000">Lightbulb</text>
</g>
<!-- fetch_intent&#45;&gt;k6nele -->
<g id="edge8" class="edge">
<title>fetch_intent&#45;&gt;k6nele</title>
<path fill="none" stroke="#000000" stroke-dasharray="5,2" d="M101.0988,-396.1826C89.5238,-405.6484 77.2358,-418.3176 71,-433 64.2302,-448.9397 64.4947,-468.5605 66.3116,-483.7352"/>
<polygon fill="#000000" stroke="#000000" points="64.2678,-484.2867 67.1693,-489.9427 68.4282,-483.7117 64.2678,-484.2867"/>
<text text-anchor="middle" x="87" y="-440.8" font-family="monospace" font-size="9.00" fill="#000000">intent</text>
</g>
<!-- fetch_intent&#45;&gt;service_dialog -->
<g id="edge14" class="edge">
<title>fetch_intent&#45;&gt;service_dialog</title>
<path fill="none" stroke="#000000" d="M175.1466,-357.142C194.0511,-347.9804 215.6578,-336.4699 234,-324 243.7224,-317.3902 253.5965,-309.1153 262.0336,-301.4701"/>
<polygon fill="#000000" stroke="#000000" points="173.8765,-355.4218 169.373,-359.9083 175.6914,-359.2095 173.8765,-355.4218"/>
<polygon fill="#000000" stroke="#000000" points="263.5698,-302.9103 266.563,-297.3021 260.7258,-299.8197 263.5698,-302.9103"/>
<text text-anchor="middle" x="244" y="-334.8" font-family="monospace" font-size="9.00" fill="#000000">http/json</text>
</g>
<!-- fetch_intent&#45;&gt;service_smart_home -->
<g id="edge6" class="edge">
<title>fetch_intent&#45;&gt;service_smart_home</title>
<path fill="none" stroke="#000000" d="M171.9216,-372.8449C226.4592,-365.424 314.6846,-349.7207 334,-324 373.7793,-271.0293 335.8389,-188.1698 312.7876,-147.7622"/>
<polygon fill="#000000" stroke="#000000" points="314.3368,-146.2486 309.5056,-142.117 310.7058,-148.3596 314.3368,-146.2486"/>
<text text-anchor="middle" x="360" y="-235.8" font-family="monospace" font-size="9.00" fill="#000000">http</text>
</g>
<!-- fetch_intent&#45;&gt;fetch_intent -->
<g id="edge9" class="edge">
<title>fetch_intent&#45;&gt;fetch_intent</title>
<path fill="none" stroke="#000000" stroke-dasharray="5,2" d="M171.6694,-384.6165C181.9301,-384.0727 189.5,-381.8672 189.5,-378 189.5,-374.9788 184.8797,-372.9717 177.9656,-371.9789"/>
<polygon fill="#000000" stroke="#000000" points="177.8405,-369.8578 171.6694,-371.3835 177.445,-374.0391 177.8405,-369.8578"/>
<text text-anchor="middle" x="205.5" y="-375.8" font-family="monospace" font-size="9.00" fill="#000000">intent</text>
</g>
<!-- fetch_intent&#45;&gt;app_lightbulb -->
<g id="edge7" class="edge">
<title>fetch_intent&#45;&gt;app_lightbulb</title>
<path fill="none" stroke="#000000" stroke-dasharray="5,2" d="M128,-359.9833C128,-327.2711 128,-258.0961 128,-221.2663"/>
<polygon fill="#000000" stroke="#000000" points="130.1001,-221.2124 128,-215.2125 125.9001,-221.2125 130.1001,-221.2124"/>
<text text-anchor="middle" x="144" y="-276.8" font-family="monospace" font-size="9.00" fill="#000000">intent</text>
</g>
<!-- app_lightbulb&#45;&gt;device_lightbulb -->
<g id="edge13" class="edge">
<title>app_lightbulb&#45;&gt;device_lightbulb</title>
<path fill="none" stroke="#000000" d="M130.771,-178.9334C135.2761,-149.5597 144.1938,-91.4161 149.2577,-58.3998"/>
<polygon fill="#000000" stroke="#000000" points="151.3827,-58.3966 150.2166,-52.1476 147.2312,-57.7598 151.3827,-58.3966"/>
</g>
</g>
</svg>
