<?xml version="1.0" encoding="UTF-8" standalone="no"?>
<!DOCTYPE svg PUBLIC "-//W3C//DTD SVG 1.1//EN"
 "http://www.w3.org/Graphics/SVG/1.1/DTD/svg11.dtd">
<!-- Generated by graphviz version 2.38.0 (20140413.2041)
 -->
<!-- Title: G Pages: 1 -->
<svg width="374pt" height="541pt"
 viewBox="0.00 0.00 374.00 540.74" xmlns="http://www.w3.org/2000/svg" xmlns:xlink="http://www.w3.org/1999/xlink">
<g id="graph0" class="graph" transform="scale(1 1) rotate(0) translate(4 536.738)">
<title>G</title>
<polygon fill="white" stroke="none" points="-4,4 -4,-536.738 370,-536.738 370,4 -4,4"/>
<g id="clust1" class="cluster"><title>cluster_0</title>
<polygon fill="lightblue" stroke="lightblue" points="238,-98 238,-251 358,-251 358,-98 238,-98"/>
<text text-anchor="middle" x="298" y="-239" font-family="Helvetica,sans-Serif" font-size="10.00">Cloud services</text>
</g>
<g id="clust2" class="cluster"><title>cluster_1</title>
<polygon fill="none" stroke="black" stroke-dasharray="1,5" points="117,-8 117,-79 333,-79 333,-8 117,-8"/>
<text text-anchor="middle" x="225" y="-67" font-family="Helvetica,sans-Serif" font-size="10.00">Devices</text>
</g>
<g id="clust3" class="cluster"><title>cluster_3</title>
<polygon fill="lightgreen" stroke="lightgreen" points="8,-180 8,-442 230,-442 230,-180 8,-180"/>
<text text-anchor="middle" x="119" y="-430" font-family="Helvetica,sans-Serif" font-size="10.00">Android activities</text>
</g>
<!-- user -->
<g id="node1" class="node"><title>user</title>
<ellipse fill="none" stroke="black" cx="73" cy="-510.369" rx="22.2391" ry="22.2391"/>
<text text-anchor="middle" x="73" y="-507.869" font-family="Helvetica,sans-Serif" font-size="10.00">User</text>
</g>
<!-- k6nele -->
<g id="node2" class="node"><title>k6nele</title>
<g id="a_node2"><a xlink:title="Maps natural language audio to an Android intent using an external recognition service, possibly followed by its own rewrite rules, and then launches the intent.">
<polygon fill="yellow" stroke="black" points="128,-415 18,-415 18,-379 128,-379 128,-415"/>
<text text-anchor="middle" x="73" y="-400" font-family="Helvetica,sans-Serif" font-size="10.00">Kõnele</text>
<text text-anchor="middle" x="73" y="-389" font-family="Helvetica,sans-Serif" font-size="10.00">SpeechActionActivity</text>
</a>
</g>
</g>
<!-- user&#45;&gt;k6nele -->
<g id="edge1" class="edge"><title>user&#45;&gt;k6nele</title>
<path fill="none" stroke="black" d="M57.6914,-493.465C52.2635,-486.768 46.8087,-478.549 44,-470 38.4671,-453.16 46.2765,-434.616 55.1778,-420.566"/>
<polygon fill="black" stroke="black" points="57.1614,-421.377 58.7517,-415.223 53.6703,-419.042 57.1614,-421.377"/>
<text text-anchor="middle" x="62.5" y="-462.8" font-family="monospace" font-size="9.00">voice</text>
<text text-anchor="middle" x="62.5" y="-452.8" font-family="monospace" font-size="9.00">command</text>
</g>
<!-- k6nele&#45;&gt;user -->
<g id="edge2" class="edge"><title>k6nele&#45;&gt;user</title>
<path fill="none" stroke="black" d="M76.9499,-415.156C79.8168,-429.736 82.8879,-451.229 81,-470 80.5967,-474.01 79.9679,-478.215 79.236,-482.323"/>
<polygon fill="black" stroke="black" points="77.1692,-481.951 78.104,-488.239 81.2943,-482.741 77.1692,-481.951"/>
<text text-anchor="middle" x="98" y="-457.8" font-family="monospace" font-size="9.00">prompt</text>
</g>
<!-- k6nele&#45;&gt;k6nele -->
<g id="edge5" class="edge"><title>k6nele&#45;&gt;k6nele</title>
<path fill="none" stroke="black" d="M128.073,-405.212C138.574,-404.23 146,-401.492 146,-397 146,-393.42 141.284,-390.955 134.055,-389.604"/>
<polygon fill="black" stroke="black" points="134.302,-387.518 128.073,-388.788 133.734,-391.68 134.302,-387.518"/>
<text text-anchor="middle" x="162" y="-394.8" font-family="monospace" font-size="9.00">intent</text>
</g>
<!-- fetch_intent -->
<g id="node8" class="node"><title>fetch_intent</title>
<g id="a_node8"><a xlink:title="Fetches JSON from a URL, interprets it as an Android intent and launches it.">
<polygon fill="yellow" stroke="black" points="171.5,-323 84.5,-323 84.5,-287 171.5,-287 171.5,-323"/>
<text text-anchor="middle" x="128" y="-308" font-family="Helvetica,sans-Serif" font-size="10.00">Kõnele</text>
<text text-anchor="middle" x="128" y="-297" font-family="Helvetica,sans-Serif" font-size="10.00">FetchUrlActivity</text>
</a>
</g>
</g>
<!-- k6nele&#45;&gt;fetch_intent -->
<g id="edge3" class="edge"><title>k6nele&#45;&gt;fetch_intent</title>
<path fill="none" stroke="black" d="M91.5295,-378.927C96.6755,-373.542 101.955,-367.335 106,-361 112.292,-351.146 117.334,-339.197 120.996,-328.957"/>
<polygon fill="black" stroke="black" points="123.026,-329.511 122.992,-323.155 119.054,-328.146 123.026,-329.511"/>
<text text-anchor="middle" x="145" y="-353.8" font-family="monospace" font-size="9.00">intent</text>
<text text-anchor="middle" x="145" y="-343.8" font-family="monospace" font-size="9.00">{data=http}</text>
</g>
<!-- app_lightbulb -->
<g id="node9" class="node"><title>app_lightbulb</title>
<g id="a_node9"><a xlink:title="Maps Android intent to an action on a concrete device.">
<polygon fill="none" stroke="black" points="173,-224 83,-224 83,-188 173,-188 173,-224"/>
<text text-anchor="middle" x="128" y="-203.5" font-family="Helvetica,sans-Serif" font-size="10.00">LightBulbActivity</text>
</a>
</g>
</g>
<!-- k6nele&#45;&gt;app_lightbulb -->
<g id="edge4" class="edge"><title>k6nele&#45;&gt;app_lightbulb</title>
<path fill="none" stroke="black" d="M61.3372,-378.886C47.9674,-356.99 29.5323,-318.17 43,-287 53.5797,-262.514 75.7507,-242.059 94.7966,-227.962"/>
<polygon fill="black" stroke="black" points="96.4352,-229.37 100.073,-224.157 93.9785,-225.963 96.4352,-229.37"/>
<text text-anchor="middle" x="59" y="-302.8" font-family="monospace" font-size="9.00">intent</text>
</g>
<!-- service_dialog -->
<g id="node3" class="node"><title>service_dialog</title>
<g id="a_node3"><a xlink:title="Maps a natural language string (in the incoming HTTP query) to some action (performed e.g. via other services). Responds with an Android intent (encoded in JSON).">
<polygon fill="none" stroke="black" points="324.5,-224 245.5,-224 245.5,-188 324.5,-188 324.5,-224"/>
<text text-anchor="middle" x="285" y="-203.5" font-family="Helvetica,sans-Serif" font-size="10.00">Dialog service</text>
</a>
</g>
</g>
<!-- service_smart_home -->
<g id="node4" class="node"><title>service_smart_home</title>
<g id="a_node4"><a xlink:title="Maps REST queries to commands to actual devices.">
<polygon fill="none" stroke="black" points="350,-142 246,-142 246,-106 350,-106 350,-142"/>
<text text-anchor="middle" x="298" y="-121.5" font-family="Helvetica,sans-Serif" font-size="10.00">Smart home service</text>
</a>
</g>
</g>
<!-- service_dialog&#45;&gt;service_smart_home -->
<g id="edge10" class="edge"><title>service_dialog&#45;&gt;service_smart_home</title>
<path fill="none" stroke="black" d="M287.821,-187.641C289.708,-176.031 292.211,-160.625 294.263,-147.997"/>
<polygon fill="black" stroke="black" points="296.34,-148.309 295.229,-142.05 292.194,-147.636 296.34,-148.309"/>
<text text-anchor="middle" x="304" y="-162.8" font-family="monospace" font-size="9.00">http</text>
</g>
<!-- device_door -->
<g id="node6" class="node"><title>device_door</title>
<polygon fill="none" stroke="black" points="253,-52 199,-52 199,-16 253,-16 253,-52"/>
<text text-anchor="middle" x="226" y="-31.5" font-family="Helvetica,sans-Serif" font-size="10.00">Door</text>
</g>
<!-- service_smart_home&#45;&gt;device_door -->
<g id="edge12" class="edge"><title>service_smart_home&#45;&gt;device_door</title>
<path fill="none" stroke="black" d="M283.775,-105.614C272.361,-91.6633 256.269,-71.9949 243.965,-56.9576"/>
<polygon fill="black" stroke="black" points="245.375,-55.3644 239.95,-52.0504 242.124,-58.024 245.375,-55.3644"/>
</g>
<!-- device_tv -->
<g id="node7" class="node"><title>device_tv</title>
<polygon fill="none" stroke="black" points="325,-52 271,-52 271,-16 325,-16 325,-52"/>
<text text-anchor="middle" x="298" y="-31.5" font-family="Helvetica,sans-Serif" font-size="10.00">TV</text>
</g>
<!-- service_smart_home&#45;&gt;device_tv -->
<g id="edge11" class="edge"><title>service_smart_home&#45;&gt;device_tv</title>
<path fill="none" stroke="black" d="M298,-105.614C298,-92.0272 298,-73.0172 298,-58.1437"/>
<polygon fill="black" stroke="black" points="300.1,-58.0504 298,-52.0504 295.9,-58.0504 300.1,-58.0504"/>
</g>
<!-- device_lightbulb -->
<g id="node5" class="node"><title>device_lightbulb</title>
<polygon fill="none" stroke="black" points="181,-52 125,-52 125,-16 181,-16 181,-52"/>
<text text-anchor="middle" x="153" y="-31.5" font-family="Helvetica,sans-Serif" font-size="10.00">Lightbulb</text>
</g>
<!-- fetch_intent&#45;&gt;k6nele -->
<g id="edge8" class="edge"><title>fetch_intent&#45;&gt;k6nele</title>
<path fill="none" stroke="black" stroke-dasharray="5,2" d="M87.3405,-323.025C80.3942,-327.798 74.1049,-333.728 70,-341 64.7054,-350.379 64.6501,-362.151 66.2489,-372.394"/>
<polygon fill="black" stroke="black" points="64.2347,-373.042 67.426,-378.54 68.3597,-372.252 64.2347,-373.042"/>
<text text-anchor="middle" x="86" y="-348.8" font-family="monospace" font-size="9.00">intent</text>
</g>
<!-- fetch_intent&#45;&gt;service_dialog -->
<g id="edge14" class="edge"><title>fetch_intent&#45;&gt;service_dialog</title>
<path fill="none" stroke="black" d="M173.671,-284.219C192.902,-275.123 215.147,-263.562 234,-251 244.017,-244.325 254.225,-235.904 262.85,-228.221"/>
<polygon fill="black" stroke="black" points="172.352,-282.518 167.806,-286.962 174.131,-286.322 172.352,-282.518"/>
<polygon fill="black" stroke="black" points="264.426,-229.626 267.467,-224.043 261.609,-226.511 264.426,-229.626"/>
<text text-anchor="middle" x="245" y="-261.8" font-family="monospace" font-size="9.00">http/json</text>
</g>
<!-- fetch_intent&#45;&gt;service_smart_home -->
<g id="edge6" class="edge"><title>fetch_intent&#45;&gt;service_smart_home</title>
<path fill="none" stroke="black" d="M171.749,-299.068C226.065,-291.922 313.909,-276.659 333,-251 356.124,-219.921 332.875,-174.298 314.797,-147.324"/>
<polygon fill="black" stroke="black" points="316.395,-145.942 311.266,-142.188 312.935,-148.322 316.395,-145.942"/>
<text text-anchor="middle" x="353" y="-203.8" font-family="monospace" font-size="9.00">http</text>
</g>
<!-- fetch_intent&#45;&gt;fetch_intent -->
<g id="edge9" class="edge"><title>fetch_intent&#45;&gt;fetch_intent</title>
<path fill="none" stroke="black" stroke-dasharray="5,2" d="M171.669,-312.352C181.93,-311.747 189.5,-309.297 189.5,-305 189.5,-301.643 184.88,-299.413 177.966,-298.31"/>
<polygon fill="black" stroke="black" points="177.856,-296.187 171.669,-297.648 177.417,-300.364 177.856,-296.187"/>
<text text-anchor="middle" x="205.5" y="-302.8" font-family="monospace" font-size="9.00">intent</text>
</g>
<!-- fetch_intent&#45;&gt;app_lightbulb -->
<g id="edge7" class="edge"><title>fetch_intent&#45;&gt;app_lightbulb</title>
<path fill="none" stroke="black" stroke-dasharray="5,2" d="M128,-286.658C128,-270.934 128,-247.631 128,-230.287"/>
<polygon fill="black" stroke="black" points="130.1,-230.191 128,-224.192 125.9,-230.192 130.1,-230.191"/>
<text text-anchor="middle" x="144" y="-261.8" font-family="monospace" font-size="9.00">intent</text>
</g>
<!-- app_lightbulb&#45;&gt;device_lightbulb -->
<g id="edge13" class="edge"><title>app_lightbulb&#45;&gt;device_lightbulb</title>
<path fill="none" stroke="black" d="M130.535,-187.764C135.057,-157.011 144.518,-92.6742 149.6,-58.1196"/>
<polygon fill="black" stroke="black" points="151.7,-58.2706 150.496,-52.0289 147.545,-57.6595 151.7,-58.2706"/>
</g>
</g>
</svg>
