<?xml version="1.0" encoding="UTF-8" standalone="no"?>
<!DOCTYPE svg PUBLIC "-//W3C//DTD SVG 1.1//EN"
 "http://www.w3.org/Graphics/SVG/1.1/DTD/svg11.dtd">
<!-- Generated by graphviz version 2.38.0 (20140413.2041)
 -->
<!-- Title: G Pages: 1 -->
<svg width="386pt" height="541pt"
 viewBox="0.00 0.00 386.00 540.74" xmlns="http://www.w3.org/2000/svg" xmlns:xlink="http://www.w3.org/1999/xlink">
<g id="graph0" class="graph" transform="scale(1 1) rotate(0) translate(4 536.738)">
<title>G</title>
<polygon fill="white" stroke="none" points="-4,4 -4,-536.738 382,-536.738 382,4 -4,4"/>
<g id="clust1" class="cluster"><title>cluster_0</title>
<polygon fill="lightblue" stroke="lightblue" points="250,-98 250,-251 370,-251 370,-98 250,-98"/>
<text text-anchor="middle" x="310" y="-239" font-family="Helvetica,sans-Serif" font-size="10.00">Cloud services</text>
</g>
<g id="clust2" class="cluster"><title>cluster_1</title>
<polygon fill="none" stroke="black" stroke-dasharray="1,5" points="129,-8 129,-79 345,-79 345,-8 129,-8"/>
<text text-anchor="middle" x="237" y="-67" font-family="Helvetica,sans-Serif" font-size="10.00">Devices</text>
</g>
<g id="clust3" class="cluster"><title>cluster_3</title>
<polygon fill="lightgreen" stroke="lightgreen" points="8,-180 8,-442 242,-442 242,-180 8,-180"/>
<text text-anchor="middle" x="125" y="-430" font-family="Helvetica,sans-Serif" font-size="10.00">Android activities</text>
</g>
<!-- user -->
<g id="node1" class="node"><title>user</title>
<ellipse fill="none" stroke="black" cx="79" cy="-510.369" rx="22.2391" ry="22.2391"/>
<text text-anchor="middle" x="79" y="-507.869" font-family="Helvetica,sans-Serif" font-size="10.00">User</text>
</g>
<!-- k6nele -->
<g id="node2" class="node"><title>k6nele</title>
<g id="a_node2"><a xlink:title="Maps natural language audio to an Android intent using an external recognition service, possibly followed by its own rewrite rules, and then launches the intent.">
<polygon fill="yellow" stroke="black" points="134,-415 24,-415 24,-379 134,-379 134,-415"/>
<text text-anchor="middle" x="79" y="-400" font-family="Helvetica,sans-Serif" font-size="10.00">Kõnele</text>
<text text-anchor="middle" x="79" y="-389" font-family="Helvetica,sans-Serif" font-size="10.00">SpeechActionActivity</text>
</a>
</g>
</g>
<!-- user&#45;&gt;k6nele -->
<g id="edge1" class="edge"><title>user&#45;&gt;k6nele</title>
<path fill="none" stroke="black" d="M63.6914,-493.465C58.2635,-486.768 52.8087,-478.549 50,-470 44.4671,-453.16 52.2765,-434.616 61.1778,-420.566"/>
<polygon fill="black" stroke="black" points="63.1614,-421.377 64.7517,-415.223 59.6703,-419.042 63.1614,-421.377"/>
<text text-anchor="middle" x="68.5" y="-462.8" font-family="monospace" font-size="9.00">voice</text>
<text text-anchor="middle" x="68.5" y="-452.8" font-family="monospace" font-size="9.00">command</text>
</g>
<!-- k6nele&#45;&gt;user -->
<g id="edge2" class="edge"><title>k6nele&#45;&gt;user</title>
<path fill="none" stroke="black" d="M82.9499,-415.156C85.8168,-429.736 88.8879,-451.229 87,-470 86.5967,-474.01 85.9679,-478.215 85.236,-482.323"/>
<polygon fill="black" stroke="black" points="83.1692,-481.951 84.104,-488.239 87.2943,-482.741 83.1692,-481.951"/>
<text text-anchor="middle" x="104" y="-457.8" font-family="monospace" font-size="9.00">prompt</text>
</g>
<!-- k6nele&#45;&gt;k6nele -->
<g id="edge5" class="edge"><title>k6nele&#45;&gt;k6nele</title>
<path fill="none" stroke="black" d="M134.073,-405.212C144.574,-404.23 152,-401.492 152,-397 152,-393.42 147.284,-390.955 140.055,-389.604"/>
<polygon fill="black" stroke="black" points="140.302,-387.518 134.073,-388.788 139.734,-391.68 140.302,-387.518"/>
<text text-anchor="middle" x="168" y="-394.8" font-family="monospace" font-size="9.00">intent</text>
</g>
<!-- fetch_intent -->
<g id="node8" class="node"><title>fetch_intent</title>
<g id="a_node8"><a xlink:title="Fetches JSON from a URL, interprets it as an Android intent and launches it.">
<polygon fill="yellow" stroke="black" points="183.5,-323 84.5,-323 84.5,-287 183.5,-287 183.5,-323"/>
<text text-anchor="middle" x="134" y="-308" font-family="Helvetica,sans-Serif" font-size="10.00">Kõnele</text>
<text text-anchor="middle" x="134" y="-297" font-family="Helvetica,sans-Serif" font-size="10.00">FetchIntentActivity</text>
</a>
</g>
</g>
<!-- k6nele&#45;&gt;fetch_intent -->
<g id="edge3" class="edge"><title>k6nele&#45;&gt;fetch_intent</title>
<path fill="none" stroke="black" d="M97.5295,-378.927C102.676,-373.542 107.955,-367.335 112,-361 118.292,-351.146 123.334,-339.197 126.996,-328.957"/>
<polygon fill="black" stroke="black" points="129.026,-329.511 128.992,-323.155 125.054,-328.146 129.026,-329.511"/>
<text text-anchor="middle" x="151" y="-353.8" font-family="monospace" font-size="9.00">intent</text>
<text text-anchor="middle" x="151" y="-343.8" font-family="monospace" font-size="9.00">{data=http}</text>
</g>
<!-- app_lightbulb -->
<g id="node9" class="node"><title>app_lightbulb</title>
<g id="a_node9"><a xlink:title="Maps Android intent to an action on a concrete device.">
<polygon fill="none" stroke="black" points="179,-224 89,-224 89,-188 179,-188 179,-224"/>
<text text-anchor="middle" x="134" y="-203.5" font-family="Helvetica,sans-Serif" font-size="10.00">LightBulbActivity</text>
</a>
</g>
</g>
<!-- k6nele&#45;&gt;app_lightbulb -->
<g id="edge4" class="edge"><title>k6nele&#45;&gt;app_lightbulb</title>
<path fill="none" stroke="black" d="M65.62,-378.962C50.2262,-357.147 28.79,-318.413 43,-287 54.3495,-261.911 77.8866,-241.562 98.1793,-227.666"/>
<polygon fill="black" stroke="black" points="99.4361,-229.352 103.259,-224.273 97.1033,-225.859 99.4361,-229.352"/>
<text text-anchor="middle" x="59" y="-302.8" font-family="monospace" font-size="9.00">intent</text>
</g>
<!-- service_dialog -->
<g id="node3" class="node"><title>service_dialog</title>
<g id="a_node3"><a xlink:title="Maps a natural language string (in the incoming HTTP query) to some action (performed e.g. via other services). Responds with an Android intent (encoded in JSON).">
<polygon fill="none" stroke="black" points="336.5,-224 257.5,-224 257.5,-188 336.5,-188 336.5,-224"/>
<text text-anchor="middle" x="297" y="-203.5" font-family="Helvetica,sans-Serif" font-size="10.00">Dialog service</text>
</a>
</g>
</g>
<!-- service_smart_home -->
<g id="node4" class="node"><title>service_smart_home</title>
<g id="a_node4"><a xlink:title="Maps REST queries to commands to actual devices.">
<polygon fill="none" stroke="black" points="362,-142 258,-142 258,-106 362,-106 362,-142"/>
<text text-anchor="middle" x="310" y="-121.5" font-family="Helvetica,sans-Serif" font-size="10.00">Smart home service</text>
</a>
</g>
</g>
<!-- service_dialog&#45;&gt;service_smart_home -->
<g id="edge10" class="edge"><title>service_dialog&#45;&gt;service_smart_home</title>
<path fill="none" stroke="black" d="M299.821,-187.641C301.708,-176.031 304.211,-160.625 306.263,-147.997"/>
<polygon fill="black" stroke="black" points="308.34,-148.309 307.229,-142.05 304.194,-147.636 308.34,-148.309"/>
<text text-anchor="middle" x="316" y="-162.8" font-family="monospace" font-size="9.00">http</text>
</g>
<!-- device_door -->
<g id="node6" class="node"><title>device_door</title>
<polygon fill="none" stroke="black" points="265,-52 211,-52 211,-16 265,-16 265,-52"/>
<text text-anchor="middle" x="238" y="-31.5" font-family="Helvetica,sans-Serif" font-size="10.00">Door</text>
</g>
<!-- service_smart_home&#45;&gt;device_door -->
<g id="edge12" class="edge"><title>service_smart_home&#45;&gt;device_door</title>
<path fill="none" stroke="black" d="M295.775,-105.614C284.361,-91.6633 268.269,-71.9949 255.965,-56.9576"/>
<polygon fill="black" stroke="black" points="257.375,-55.3644 251.95,-52.0504 254.124,-58.024 257.375,-55.3644"/>
</g>
<!-- device_tv -->
<g id="node7" class="node"><title>device_tv</title>
<polygon fill="none" stroke="black" points="337,-52 283,-52 283,-16 337,-16 337,-52"/>
<text text-anchor="middle" x="310" y="-31.5" font-family="Helvetica,sans-Serif" font-size="10.00">TV</text>
</g>
<!-- service_smart_home&#45;&gt;device_tv -->
<g id="edge11" class="edge"><title>service_smart_home&#45;&gt;device_tv</title>
<path fill="none" stroke="black" d="M310,-105.614C310,-92.0272 310,-73.0172 310,-58.1437"/>
<polygon fill="black" stroke="black" points="312.1,-58.0504 310,-52.0504 307.9,-58.0504 312.1,-58.0504"/>
</g>
<!-- device_lightbulb -->
<g id="node5" class="node"><title>device_lightbulb</title>
<polygon fill="none" stroke="black" points="193,-52 137,-52 137,-16 193,-16 193,-52"/>
<text text-anchor="middle" x="165" y="-31.5" font-family="Helvetica,sans-Serif" font-size="10.00">Lightbulb</text>
</g>
<!-- fetch_intent&#45;&gt;k6nele -->
<g id="edge8" class="edge"><title>fetch_intent&#45;&gt;k6nele</title>
<path fill="none" stroke="black" stroke-dasharray="5,2" d="M93.3405,-323.025C86.3942,-327.798 80.1049,-333.728 76,-341 70.7054,-350.379 70.6501,-362.151 72.2489,-372.394"/>
<polygon fill="black" stroke="black" points="70.2347,-373.042 73.426,-378.54 74.3597,-372.252 70.2347,-373.042"/>
<text text-anchor="middle" x="92" y="-348.8" font-family="monospace" font-size="9.00">intent</text>
</g>
<!-- fetch_intent&#45;&gt;service_dialog -->
<g id="edge14" class="edge"><title>fetch_intent&#45;&gt;service_dialog</title>
<path fill="none" stroke="black" d="M182.555,-284.464C202.833,-275.441 226.223,-263.87 246,-251 256.089,-244.434 266.311,-236.035 274.927,-228.337"/>
<polygon fill="black" stroke="black" points="181.572,-282.603 176.924,-286.94 183.262,-286.447 181.572,-282.603"/>
<polygon fill="black" stroke="black" points="276.508,-229.738 279.537,-224.15 273.684,-226.629 276.508,-229.738"/>
<text text-anchor="middle" x="256" y="-261.8" font-family="monospace" font-size="9.00">http/json</text>
</g>
<!-- fetch_intent&#45;&gt;service_smart_home -->
<g id="edge6" class="edge"><title>fetch_intent&#45;&gt;service_smart_home</title>
<path fill="none" stroke="black" d="M183.923,-298.654C240.057,-291.472 325.891,-276.563 345,-251 368.194,-219.974 344.922,-174.333 326.82,-147.342"/>
<polygon fill="black" stroke="black" points="328.415,-145.955 323.284,-142.202 324.955,-148.335 328.415,-145.955"/>
<text text-anchor="middle" x="365" y="-203.8" font-family="monospace" font-size="9.00">http</text>
</g>
<!-- fetch_intent&#45;&gt;fetch_intent -->
<g id="edge9" class="edge"><title>fetch_intent&#45;&gt;fetch_intent</title>
<path fill="none" stroke="black" stroke-dasharray="5,2" d="M183.745,-312.236C194.073,-311.475 201.5,-309.062 201.5,-305 201.5,-301.826 196.967,-299.66 190.059,-298.5"/>
<polygon fill="black" stroke="black" points="189.948,-296.373 183.745,-297.764 189.462,-300.545 189.948,-296.373"/>
<text text-anchor="middle" x="217.5" y="-302.8" font-family="monospace" font-size="9.00">intent</text>
</g>
<!-- fetch_intent&#45;&gt;app_lightbulb -->
<g id="edge7" class="edge"><title>fetch_intent&#45;&gt;app_lightbulb</title>
<path fill="none" stroke="black" stroke-dasharray="5,2" d="M134,-286.658C134,-270.934 134,-247.631 134,-230.287"/>
<polygon fill="black" stroke="black" points="136.1,-230.191 134,-224.192 131.9,-230.192 136.1,-230.191"/>
<text text-anchor="middle" x="150" y="-261.8" font-family="monospace" font-size="9.00">intent</text>
</g>
<!-- app_lightbulb&#45;&gt;device_lightbulb -->
<g id="edge13" class="edge"><title>app_lightbulb&#45;&gt;device_lightbulb</title>
<path fill="none" stroke="black" d="M137.143,-187.764C142.751,-157.011 154.483,-92.6742 160.784,-58.1196"/>
<polygon fill="black" stroke="black" points="162.884,-58.3083 161.895,-52.0289 158.752,-57.5548 162.884,-58.3083"/>
</g>
</g>
</svg>
